<?xml version="1.0" encoding="UTF-8"?>
<!DOCTYPE svg PUBLIC "-//W3C//DTD SVG 1.1//EN" "http://www.w3.org/Graphics/SVG/1.1/DTD/svg11.dtd">
<svg xmlns="http://www.w3.org/2000/svg" version="1.1" width="4501px" height="378px" style="shape-rendering:geometricPrecision; text-rendering:geometricPrecision; image-rendering:optimizeQuality; fill-rule:evenodd; clip-rule:evenodd" xmlns:xlink="http://www.w3.org/1999/xlink">
<g><path style="opacity:0.947" fill="#86f873" d="M 3143.5,-0.5 C 3144.5,-0.5 3145.5,-0.5 3146.5,-0.5C 3152.63,6.13149 3158.96,12.6315 3165.5,19C 3159.17,25.3333 3152.83,31.6667 3146.5,38C 3136.9,43.0469 3127.4,48.2135 3118,53.5C 3113.74,52.2605 3111.41,49.5938 3111,45.5C 3116,36.5 3121,27.5 3126,18.5C 3132.41,12.5968 3138.24,6.26343 3143.5,-0.5 Z"/></g>
<g><path style="opacity:0.965" fill="#86f873" d="M 508.5,377.5 C 496.5,377.5 484.5,377.5 472.5,377.5C 442.005,369.835 423.505,350.502 417,319.5C 415.36,259.194 415.027,198.861 416,138.5C 422.494,95.3318 447.494,73.6651 491,73.5C 533.072,73.8962 557.738,94.8962 565,136.5C 565.5,147.161 565.667,157.828 565.5,168.5C 555.5,168.5 545.5,168.5 535.5,168.5C 535.891,156.447 535.391,144.447 534,132.5C 530.332,116.167 520.499,105.667 504.5,101C 471.731,94.2716 452.231,107.105 446,139.5C 445.333,196.833 445.333,254.167 446,311.5C 449.353,338.198 464.353,351.198 491,350.5C 514.093,351.755 528.426,341.088 534,318.5C 535.391,306.553 535.891,294.553 535.5,282.5C 545.5,282.5 555.5,282.5 565.5,282.5C 568.998,307.883 563.831,331.217 550,352.5C 538.906,365.62 525.073,373.954 508.5,377.5 Z"/></g>
<g><path style="opacity:0.971" fill="#86f873" d="M 2702.5,377.5 C 2692.83,377.5 2683.17,377.5 2673.5,377.5C 2638.53,368.989 2619.37,346.656 2616,310.5C 2615.33,253.833 2615.33,197.167 2616,140.5C 2619.02,108.9 2635.19,87.4005 2664.5,76C 2680.17,72.6667 2695.83,72.6667 2711.5,76C 2740.79,86.9807 2756.96,108.147 2760,139.5C 2760.67,196.833 2760.67,254.167 2760,311.5C 2756.18,347.136 2737.02,369.136 2702.5,377.5 Z M 2677.5,100.5 C 2707.89,97.0739 2725.39,110.407 2730,140.5C 2730.67,197.167 2730.67,253.833 2730,310.5C 2725.24,341.255 2707.4,354.422 2676.5,350C 2661.28,345.757 2651.78,335.923 2648,320.5C 2647.12,317.211 2646.45,313.877 2646,310.5C 2645.03,251.806 2645.36,193.139 2647,134.5C 2650.77,117.236 2660.94,105.902 2677.5,100.5 Z"/></g>
<g><path style="opacity:0.969" fill="#86f873" d="M 3140.5,377.5 C 3130.5,377.5 3120.5,377.5 3110.5,377.5C 3080.23,370.712 3061.73,352.046 3055,321.5C 3053.36,259.531 3053.02,197.531 3054,135.5C 3059.45,102.058 3078.61,81.5578 3111.5,74C 3148.92,68.6242 3175.76,82.7908 3192,116.5C 3194.56,122.943 3196.22,129.61 3197,136.5C 3197.67,195.833 3197.67,255.167 3197,314.5C 3191.9,348.089 3173.07,369.089 3140.5,377.5 Z M 3114.5,100.5 C 3143.53,96.7196 3161.03,109.053 3167,137.5C 3167.67,196.167 3167.67,254.833 3167,313.5C 3161.04,342.906 3143.21,355.072 3113.5,350C 3096.45,344.274 3086.62,332.441 3084,314.5C 3083.33,255.167 3083.33,195.833 3084,136.5C 3086.97,118.147 3097.13,106.147 3114.5,100.5 Z"/></g>
<g><path style="opacity:0.965" fill="#86f873" d="M 3808.5,377.5 C 3796.5,377.5 3784.5,377.5 3772.5,377.5C 3742.48,369.976 3723.98,350.976 3717,320.5C 3715.36,259.198 3715.02,197.864 3716,136.5C 3723.33,94.6571 3748.17,73.6571 3790.5,73.5C 3833.75,73.9043 3858.58,95.571 3865,138.5C 3865.5,148.494 3865.67,158.494 3865.5,168.5C 3855.5,168.5 3845.5,168.5 3835.5,168.5C 3835.67,158.828 3835.5,149.161 3835,139.5C 3828.79,107.114 3809.29,94.2804 3776.5,101C 3762.87,104.631 3753.7,113.131 3749,126.5C 3747.69,130.42 3746.69,134.42 3746,138.5C 3745.33,196.5 3745.33,254.5 3746,312.5C 3748.34,331.056 3758.17,343.556 3775.5,350C 3785.17,350.667 3794.83,350.667 3804.5,350C 3819.27,345.895 3828.77,336.395 3833,321.5C 3833.79,318.529 3834.46,315.529 3835,312.5C 3835.5,302.506 3835.67,292.506 3835.5,282.5C 3845.5,282.5 3855.5,282.5 3865.5,282.5C 3868.15,304.282 3864.65,324.949 3855,344.5C 3844.21,362.298 3828.71,373.298 3808.5,377.5 Z"/></g>
<g><path style="opacity:0.965" fill="#86f873" d="M 637.5,77.5 C 647.5,77.5 657.5,77.5 667.5,77.5C 667.5,167.5 667.5,257.5 667.5,347.5C 707.167,347.5 746.833,347.5 786.5,347.5C 786.5,356.5 786.5,365.5 786.5,374.5C 736.833,374.5 687.167,374.5 637.5,374.5C 637.5,275.5 637.5,176.5 637.5,77.5 Z"/></g>
<g><path style="opacity:0.973" fill="#86f873" d="M 939.5,377.5 C 929.833,377.5 920.167,377.5 910.5,377.5C 879.004,370.167 860.17,350.5 854,318.5C 852.523,238.191 852.023,157.857 852.5,77.5C 862.5,77.5 872.5,77.5 882.5,77.5C 882.333,155.167 882.5,232.834 883,310.5C 888.426,343.564 907.592,356.397 940.5,349C 956.349,341.175 965.182,328.342 967,310.5C 967.5,232.834 967.667,155.167 967.5,77.5C 977.5,77.5 987.5,77.5 997.5,77.5C 997.98,157.86 997.48,238.194 996,318.5C 989.83,350.5 970.996,370.167 939.5,377.5 Z"/></g>
<g><path style="opacity:0.969" fill="#86f873" d="M 1072.5,77.5 C 1101.84,77.3334 1131.17,77.5 1160.5,78C 1191.59,85.4306 1210.09,104.931 1216,136.5C 1218,150.5 1218,164.5 1216,178.5C 1211.47,199.365 1199.3,213.865 1179.5,222C 1207.81,235.443 1220.48,257.943 1217.5,289.5C 1220.07,319.653 1209.74,344.153 1186.5,363C 1176.45,369.46 1165.45,373.126 1153.5,374C 1126.5,374.5 1099.5,374.667 1072.5,374.5C 1072.5,275.5 1072.5,176.5 1072.5,77.5 Z M 1102.5,103.5 C 1118.5,103.333 1134.5,103.5 1150.5,104C 1166.15,105.746 1176.99,113.912 1183,128.5C 1187.25,142.188 1188.58,156.188 1187,170.5C 1184.33,190.16 1173.5,202.66 1154.5,208C 1137.17,208.5 1119.84,208.667 1102.5,208.5C 1102.5,173.5 1102.5,138.5 1102.5,103.5 Z M 1102.5,235.5 C 1173.54,223.705 1200.37,252.705 1183,322.5C 1177.56,336.608 1167.4,344.775 1152.5,347C 1135.84,347.5 1119.17,347.667 1102.5,347.5C 1102.5,310.167 1102.5,272.833 1102.5,235.5 Z"/></g>
<g><path style="opacity:0.977" fill="#86f873" d="M 1291.5,77.5 C 1338.5,77.5 1385.5,77.5 1432.5,77.5C 1432.5,86.1667 1432.5,94.8333 1432.5,103.5C 1395.5,103.5 1358.5,103.5 1321.5,103.5C 1321.5,138.5 1321.5,173.5 1321.5,208.5C 1353.5,208.5 1385.5,208.5 1417.5,208.5C 1417.5,217.5 1417.5,226.5 1417.5,235.5C 1385.5,235.5 1353.5,235.5 1321.5,235.5C 1321.5,272.833 1321.5,310.167 1321.5,347.5C 1358.5,347.5 1395.5,347.5 1432.5,347.5C 1432.5,356.5 1432.5,365.5 1432.5,374.5C 1385.5,374.5 1338.5,374.5 1291.5,374.5C 1291.5,275.5 1291.5,176.5 1291.5,77.5 Z"/></g>
<g><path style="opacity:0.975" fill="#86f873" d="M 1735.5,77.5 C 1764.84,77.3334 1794.17,77.5 1823.5,78C 1846.54,83.0424 1863.04,96.2091 1873,117.5C 1875.93,124.571 1877.93,131.904 1879,139.5C 1879.67,196.833 1879.67,254.167 1879,311.5C 1874.08,343.883 1855.92,364.383 1824.5,373C 1794.86,374.425 1765.19,374.925 1735.5,374.5C 1735.5,275.5 1735.5,176.5 1735.5,77.5 Z M 1765.5,103.5 C 1783.54,103.1 1801.54,103.6 1819.5,105C 1836.54,110.718 1846.37,122.551 1849,140.5C 1849.67,197.167 1849.67,253.833 1849,310.5C 1846.48,328.012 1836.98,339.846 1820.5,346C 1802.21,347.418 1783.87,347.918 1765.5,347.5C 1765.5,266.167 1765.5,184.833 1765.5,103.5 Z"/></g>
<g><path style="opacity:0.977" fill="#86f873" d="M 1954.5,77.5 C 2001.5,77.5 2048.5,77.5 2095.5,77.5C 2095.5,86.1667 2095.5,94.8333 2095.5,103.5C 2058.5,103.5 2021.5,103.5 1984.5,103.5C 1984.5,138.5 1984.5,173.5 1984.5,208.5C 2016.5,208.5 2048.5,208.5 2080.5,208.5C 2080.5,217.5 2080.5,226.5 2080.5,235.5C 2048.5,235.5 2016.5,235.5 1984.5,235.5C 1984.5,272.833 1984.5,310.167 1984.5,347.5C 2021.5,347.5 2058.5,347.5 2095.5,347.5C 2095.5,356.5 2095.5,365.5 2095.5,374.5C 2048.5,374.5 2001.5,374.5 1954.5,374.5C 1954.5,275.5 1954.5,176.5 1954.5,77.5 Z"/></g>
<g><path style="opacity:0.972" fill="#86f873" d="M 2398.5,77.5 C 2427.84,77.3334 2457.17,77.5 2486.5,78C 2516.16,85.0989 2534.32,103.599 2541,133.5C 2542.59,152.795 2542.92,172.129 2542,191.5C 2537.66,219.905 2522.49,239.905 2496.5,251.5C 2514.5,292.167 2532.5,332.833 2550.5,373.5C 2539.61,374.819 2528.77,374.819 2518,373.5C 2500.5,333.65 2483,293.816 2465.5,254C 2453.17,253.5 2440.84,253.333 2428.5,253.5C 2428.5,293.833 2428.5,334.167 2428.5,374.5C 2418.5,374.5 2408.5,374.5 2398.5,374.5C 2398.5,275.5 2398.5,176.5 2398.5,77.5 Z M 2428.5,103.5 C 2444.17,103.333 2459.84,103.5 2475.5,104C 2496.69,107.526 2508.86,120.026 2512,141.5C 2512.67,157.5 2512.67,173.5 2512,189.5C 2509.38,207.624 2499.54,219.791 2482.5,226C 2464.5,226.5 2446.5,226.667 2428.5,226.5C 2428.5,185.5 2428.5,144.5 2428.5,103.5 Z"/></g>
<g><path style="opacity:0.97" fill="#86f873" d="M 2835.5,77.5 C 2864.84,77.3334 2894.17,77.5 2923.5,78C 2955.05,85.5487 2973.55,105.382 2979,137.5C 2981.21,152.562 2980.88,167.562 2978,182.5C 2972.46,201.374 2960.62,214.541 2942.5,222C 2970.95,235.549 2983.62,258.216 2980.5,290C 2982.72,319.878 2972.38,344.212 2949.5,363C 2939.16,369.669 2927.83,373.335 2915.5,374C 2888.84,374.5 2862.17,374.667 2835.5,374.5C 2835.5,275.5 2835.5,176.5 2835.5,77.5 Z M 2865.5,103.5 C 2883.87,103.114 2902.2,103.614 2920.5,105C 2936.5,111.012 2946,122.512 2949,139.5C 2951.74,154.797 2950.74,169.797 2946,184.5C 2940.23,197.465 2930.39,205.299 2916.5,208C 2899.5,208.5 2882.5,208.667 2865.5,208.5C 2865.5,173.5 2865.5,138.5 2865.5,103.5 Z M 2865.5,235.5 C 2932.78,222.618 2960.28,249.618 2948,316.5C 2943.58,333.592 2932.74,343.759 2915.5,347C 2898.84,347.5 2882.17,347.667 2865.5,347.5C 2865.5,310.167 2865.5,272.833 2865.5,235.5 Z"/></g>
<g><path style="opacity:0.977" fill="#86f873" d="M 3257.5,77.5 C 3316.83,77.5 3376.17,77.5 3435.5,77.5C 3435.5,86.1667 3435.5,94.8333 3435.5,103.5C 3410.83,103.5 3386.17,103.5 3361.5,103.5C 3361.5,193.833 3361.5,284.167 3361.5,374.5C 3351.5,374.5 3341.5,374.5 3331.5,374.5C 3331.5,284.167 3331.5,193.833 3331.5,103.5C 3306.83,103.5 3282.17,103.5 3257.5,103.5C 3257.5,94.8333 3257.5,86.1667 3257.5,77.5 Z"/></g>
<g><path style="opacity:0.972" fill="#86f873" d="M 3501.5,77.5 C 3549.83,77.5 3598.17,77.5 3646.5,77.5C 3646.5,86.1667 3646.5,94.8333 3646.5,103.5C 3627.17,103.5 3607.83,103.5 3588.5,103.5C 3588.5,184.833 3588.5,266.167 3588.5,347.5C 3607.83,347.5 3627.17,347.5 3646.5,347.5C 3646.5,356.5 3646.5,365.5 3646.5,374.5C 3598.17,374.5 3549.83,374.5 3501.5,374.5C 3501.5,365.5 3501.5,356.5 3501.5,347.5C 3520.5,347.5 3539.5,347.5 3558.5,347.5C 3558.5,266.167 3558.5,184.833 3558.5,103.5C 3539.5,103.5 3520.5,103.5 3501.5,103.5C 3501.5,94.8333 3501.5,86.1667 3501.5,77.5 Z"/></g>
<g><path style="opacity:0.968" fill="#86f873" d="M 3979.5,77.5 C 4000.08,77.1734 4020.58,77.5067 4041,78.5C 4055.33,114.833 4069.67,151.167 4084,187.5C 4084.5,249.832 4084.67,312.166 4084.5,374.5C 4074.5,374.5 4064.5,374.5 4054.5,374.5C 4054.5,337.167 4054.5,299.833 4054.5,262.5C 4024.83,262.5 3995.17,262.5 3965.5,262.5C 3965.5,299.833 3965.5,337.167 3965.5,374.5C 3955.5,374.5 3945.5,374.5 3935.5,374.5C 3935.33,312.166 3935.5,249.832 3936,187.5C 3950.41,150.765 3964.91,114.098 3979.5,77.5 Z M 3999.5,103.5 C 4006.53,103.17 4013.53,103.503 4020.5,104.5C 4031.96,133.382 4043.13,162.382 4054,191.5C 4054.5,206.163 4054.67,220.83 4054.5,235.5C 4024.83,235.5 3995.17,235.5 3965.5,235.5C 3965.33,220.496 3965.5,205.496 3966,190.5C 3977.27,161.511 3988.44,132.511 3999.5,103.5 Z"/></g>
<g><path style="opacity:0.984" fill="#86f873" d="M -0.5,132.5 C 53.3027,163.236 106.969,194.236 160.5,225.5C 106.942,256.776 53.2752,287.776 -0.5,318.5C -0.5,256.5 -0.5,194.5 -0.5,132.5 Z"/></g>
<g><path style="opacity:0.981" fill="#86f873" d="M 4500.5,132.5 C 4500.5,194.5 4500.5,256.5 4500.5,318.5C 4446.4,288.281 4392.73,257.281 4339.5,225.5C 4392.94,194.045 4446.61,163.045 4500.5,132.5 Z"/></g>
</svg>
