<?xml version="1.0" encoding="UTF-8" standalone="no"?>
<svg
   xmlns:dc="http://purl.org/dc/elements/1.1/"
   xmlns:cc="http://creativecommons.org/ns#"
   xmlns:rdf="http://www.w3.org/1999/02/22-rdf-syntax-ns#"
   xmlns:svg="http://www.w3.org/2000/svg"
   xmlns="http://www.w3.org/2000/svg"
   viewBox="0 0 1440 1440"
   height="1440"
   width="1440"
   xml:space="preserve"
   id="svg2"
   version="1.1"><metadata
     id="metadata8"><rdf:RDF><cc:Work
         rdf:about=""><dc:format>image/svg+xml</dc:format><dc:type
           rdf:resource="http://purl.org/dc/dcmitype/StillImage" /></cc:Work></rdf:RDF></metadata><defs
     id="defs6"><clipPath
       id="clipPath18"
       clipPathUnits="userSpaceOnUse"><path
         id="path16"
         d="M 0,1080 H 1080 V 0 H 0 Z" /></clipPath></defs><g
     transform="matrix(1.3333333,0,0,-1.3333333,0,1440)"
     id="g10"><g
       id="g12"><g
         clip-path="url(#clipPath18)"
         id="g14"><g
           transform="translate(300.2873,540)"
           id="g20"><path
             id="path22"
             style="fill:#86f874;fill-opacity:1;fill-rule:nonzero;stroke:none"
             d="m 0,0 c 0,76.288 25.998,146.492 69.603,202.271 9.263,11.85 0.529,29.158 -14.512,29.158 h -205.698 c -6.514,0 -12.533,-3.475 -15.79,-9.117 L -289.486,9.116 c -3.257,-5.641 -3.257,-12.591 0,-18.232 l 123.089,-213.196 c 3.257,-5.642 9.276,-9.117 15.79,-9.117 H 55.091 c 15.041,0 23.775,17.308 14.512,29.158 C 25.998,-146.492 0,-76.288 0,0" /></g><g
           transform="translate(1069.1986,240.5451)"
           id="g24"><path
             id="path26"
             style="fill:#86f874;fill-opacity:1;fill-rule:nonzero;stroke:none"
             d="m 0,0 -102.847,178.134 c -7.515,13.016 -26.861,11.935 -32.502,-1.996 -48.776,-120.465 -166.826,-205.463 -304.785,-205.463 -15.422,0 -30.593,1.071 -45.447,3.135 -14.96,2.078 -25.664,-14.024 -18.112,-27.104 l 102.846,-178.135 c 3.257,-5.641 9.276,-9.116 15.79,-9.116 h 246.178 c 6.514,0 12.533,3.475 15.79,9.116 L 0,-18.233 C 3.257,-12.592 3.257,-5.641 0,0" /></g><g
           transform="translate(1069.1987,857.6881)"
           id="g28"><path
             id="path30"
             style="fill:#86f874;fill-opacity:1;fill-rule:nonzero;stroke:none"
             d="m 0,0 -123.089,213.196 c -3.257,5.641 -9.276,9.116 -15.79,9.116 h -246.178 c -6.514,0 -12.533,-3.475 -15.79,-9.116 L -503.694,35.061 c -7.551,-13.081 3.152,-29.182 18.112,-27.104 14.855,2.063 30.026,3.134 45.448,3.134 137.959,0 256.009,-84.996 304.785,-205.462 5.641,-13.932 24.987,-15.012 32.502,-1.996 L 0,-18.233 C 3.257,-12.591 3.257,-5.641 0,0" /></g></g></g></g></svg>