<?xml version="1.0" encoding="UTF-8"?>
<!DOCTYPE svg PUBLIC "-//W3C//DTD SVG 1.1//EN" "http://www.w3.org/Graphics/SVG/1.1/DTD/svg11.dtd">
<svg xmlns="http://www.w3.org/2000/svg" version="1.1" width="4501px" height="3939px" style="shape-rendering:geometricPrecision; text-rendering:geometricPrecision; image-rendering:optimizeQuality; fill-rule:evenodd; clip-rule:evenodd" xmlns:xlink="http://www.w3.org/1999/xlink">
<g><path style="opacity:0.999" fill="#68296b" d="M 2234.5,-0.5 C 2244.5,-0.5 2254.5,-0.5 2264.5,-0.5C 2317.39,6.01707 2357.55,32.0171 2385,77.5C 3081.67,1284.17 3778.33,2490.83 4475,3697.5C 4489.44,3720.97 4497.94,3746.31 4500.5,3773.5C 4500.5,3779.83 4500.5,3786.17 4500.5,3792.5C 4494.86,3848.62 4467.86,3891.12 4419.5,3920C 4400.22,3930.06 4379.89,3936.23 4358.5,3938.5C 2952.83,3938.5 1547.17,3938.5 141.5,3938.5C 72.6523,3929.16 27.1523,3891.49 5,3825.5C 2.71871,3816.45 0.885375,3807.45 -0.5,3798.5C -0.5,3788.17 -0.5,3777.83 -0.5,3767.5C 2.32714,3744.85 9.4938,3723.52 21,3703.5C 717.667,2496.83 1414.33,1290.17 2111,83.5C 2137.86,34.4863 2179.02,6.48627 2234.5,-0.5 Z"/></g>
</svg>
