<?xml version="1.0" encoding="UTF-8"?>
<!DOCTYPE svg PUBLIC "-//W3C//DTD SVG 1.1//EN" "http://www.w3.org/Graphics/SVG/1.1/DTD/svg11.dtd">
<svg xmlns="http://www.w3.org/2000/svg" version="1.1" width="4501px" height="1331px" style="shape-rendering:geometricPrecision; text-rendering:geometricPrecision; image-rendering:optimizeQuality; fill-rule:evenodd; clip-rule:evenodd" xmlns:xlink="http://www.w3.org/1999/xlink">
<g><path style="opacity:0.988" fill="#e8f0f1" d="M 616.5,-0.5 C 619.5,-0.5 622.5,-0.5 625.5,-0.5C 655.279,-0.13959 683.612,6.69374 710.5,20C 755.57,46.9616 778.236,86.795 778.5,139.5C 751.893,147.702 725.226,155.702 698.5,163.5C 697.745,141.47 691.578,121.137 680,102.5C 666.512,85.0015 648.678,75.1682 626.5,73C 605.609,70.3634 585.943,74.03 567.5,84C 540.295,103.955 531.795,130.122 542,162.5C 545.955,171.123 551.455,178.623 558.5,185C 564.552,190.053 570.885,194.719 577.5,199C 600.104,210.802 623.104,221.802 646.5,232C 662.5,240.333 678.5,248.667 694.5,257C 760.479,294.85 782.979,350.683 762,424.5C 745.257,471.243 714.09,504.409 668.5,524C 626.745,539.731 583.745,544.397 539.5,538C 488.366,531.366 447.199,507.866 416,467.5C 397.22,439.387 388.554,408.387 390,374.5C 417.123,367.427 444.289,360.427 471.5,353.5C 471.294,395.598 488.294,428.431 522.5,452C 556.67,469.539 592.003,472.205 628.5,460C 669.583,441.333 684.417,410.167 673,366.5C 666.187,353.035 656.687,341.869 644.5,333C 639.167,329.667 633.833,326.333 628.5,323C 601.707,309.622 574.707,296.622 547.5,284C 528.488,274.167 510.488,262.834 493.5,250C 458.796,219.721 444.296,181.554 450,135.5C 457.748,78.507 487.915,38.3404 540.5,15C 565.027,5.19481 590.36,0.0281474 616.5,-0.5 Z"/></g>
<g><path style="opacity:0.989" fill="#e8f0f1" d="M 1522.5,-0.5 C 1525.5,-0.5 1528.5,-0.5 1531.5,-0.5C 1578.01,-0.720052 1620.34,12.4466 1658.5,39C 1696.45,71.0462 1719.29,111.879 1727,161.5C 1737.97,244.38 1726.64,324.047 1693,400.5C 1637.65,508.429 1549.49,553.929 1428.5,537C 1346.56,521.733 1295.73,473.566 1276,392.5C 1261.29,308.87 1270.29,227.87 1303,149.5C 1322.41,105.505 1351.24,69.0051 1389.5,40C 1429.74,13.0244 1474.07,-0.475569 1522.5,-0.5 Z M 1521.5,72.5 C 1566.62,71.4623 1599.46,90.7956 1620,130.5C 1628.61,149.926 1633.61,170.259 1635,191.5C 1637.98,251.963 1628.31,310.296 1606,366.5C 1594.31,393.732 1577.81,417.565 1556.5,438C 1518.16,468.421 1475.83,475.421 1429.5,459C 1404.01,446.172 1386.18,426.338 1376,399.5C 1365.75,368.975 1362.08,337.642 1365,305.5C 1367.35,261.738 1376.35,219.404 1392,178.5C 1403.33,149.857 1420.16,125.024 1442.5,104C 1465.21,84.3753 1491.54,73.8753 1521.5,72.5 Z"/></g>
<g><path style="opacity:0.987" fill="#e8f0f1" d="M -0.5,530.5 C -0.5,528.833 -0.5,527.167 -0.5,525.5C 28.7947,353.732 57.4613,181.732 85.5,9.5C 196.167,9.5 306.833,9.5 417.5,9.5C 413.382,34.8741 409.049,60.2074 404.5,85.5C 325.169,86.3333 245.835,86.8333 166.5,87C 158.911,129.704 151.911,172.537 145.5,215.5C 206.833,215.5 268.167,215.5 329.5,215.5C 325.608,239.852 321.608,264.185 317.5,288.5C 255.833,288.5 194.167,288.5 132.5,288.5C 123.5,343.836 114.5,399.169 105.5,454.5C 186.5,454.5 267.5,454.5 348.5,454.5C 344.5,479.833 340.5,505.167 336.5,530.5C 224.167,530.5 111.833,530.5 -0.5,530.5 Z"/></g>
<g><path style="opacity:0.99" fill="#e8f0f1" d="M 900.5,9.5 C 961.168,9.33334 1021.83,9.50001 1082.5,10C 1119.56,9.21149 1154.56,17.2115 1187.5,34C 1221.3,54.8292 1241.13,84.9958 1247,124.5C 1255.42,176.851 1242.42,222.851 1208,262.5C 1175.15,293.665 1135.99,311.498 1090.5,316C 1080.52,316.946 1070.52,317.613 1060.5,318C 1021.83,318.5 983.168,318.667 944.5,318.5C 932.608,388.854 920.608,459.187 908.5,529.5C 877.174,530.5 845.84,530.833 814.5,530.5C 843.275,356.849 871.942,183.183 900.5,9.5 Z M 983.5,82.5 C 1011.17,82.3334 1038.84,82.5 1066.5,83C 1138.76,84.9142 1165.59,120.748 1147,190.5C 1133.27,220.14 1110.11,237.307 1077.5,242C 1071.86,242.864 1066.19,243.531 1060.5,244C 1025.83,244.833 991.162,244.667 956.5,243.5C 965.613,189.821 974.613,136.155 983.5,82.5 Z"/></g>
<g><path style="opacity:0.99" fill="#e8f0f1" d="M 1840.5,9.5 C 1905.5,9.33334 1970.5,9.5 2035.5,10C 2070.96,9.35605 2104.29,17.356 2135.5,34C 2171.23,56.9263 2190.39,89.7596 2193,132.5C 2195.26,204.833 2163.09,255 2096.5,283C 2089.64,285.732 2082.64,288.066 2075.5,290C 2101.32,368.139 2127.16,446.306 2153,524.5C 2153.5,526.473 2153.66,528.473 2153.5,530.5C 2120.5,530.5 2087.5,530.5 2054.5,530.5C 2031.04,454.106 2007.37,377.773 1983.5,301.5C 1950.93,301.171 1918.43,301.504 1886,302.5C 1873.39,378.493 1860.89,454.493 1848.5,530.5C 1817.17,530.5 1785.83,530.5 1754.5,530.5C 1782.84,356.784 1811.51,183.118 1840.5,9.5 Z M 1922.5,82.5 C 1958.52,82.0995 1994.52,82.5995 2030.5,84C 2082,89.1638 2103.83,117.33 2096,168.5C 2086.69,201.935 2064.86,221.768 2030.5,228C 2021.58,229.709 2012.58,230.709 2003.5,231C 1968.16,231.833 1932.83,231.667 1897.5,230.5C 1905.83,181.163 1914.17,131.829 1922.5,82.5 Z"/></g>
<g><path style="opacity:0.987" fill="#e8f0f1" d="M 2247.5,9.5 C 2385.83,9.5 2524.17,9.5 2662.5,9.5C 2658.97,34.9122 2654.97,60.2455 2650.5,85.5C 2596.84,86.4999 2543.17,86.8333 2489.5,86.5C 2464.89,233.803 2440.39,381.136 2416,528.5C 2384.72,530.488 2353.22,531.155 2321.5,530.5C 2346.05,382.533 2370.38,234.533 2394.5,86.5C 2341.17,86.5 2287.83,86.5 2234.5,86.5C 2238.73,60.8143 2243.06,35.1477 2247.5,9.5 Z"/></g>
<g><path style="opacity:0.988" fill="#e8f0f1" d="M 2715.5,9.5 C 2825.83,9.5 2936.17,9.5 3046.5,9.5C 3042.61,35.1823 3038.61,60.849 3034.5,86.5C 2954.83,86.5 2875.17,86.5 2795.5,86.5C 2788.61,129.52 2781.61,172.52 2774.5,215.5C 2835.83,215.5 2897.17,215.5 2958.5,215.5C 2955.09,239.792 2951.09,263.959 2946.5,288C 2885.16,288.167 2823.83,288.667 2762.5,289.5C 2753.06,344.48 2743.73,399.48 2734.5,454.5C 2815.84,454.167 2897.17,454.5 2978.5,455.5C 2974.06,480.479 2969.73,505.479 2965.5,530.5C 2853.16,530.833 2740.83,530.5 2628.5,529.5C 2657.72,356.206 2686.72,182.873 2715.5,9.5 Z"/></g>
<g><path style="opacity:0.988" fill="#e8f0f1" d="M 126.5,1330.5 C 95.1667,1330.5 63.8333,1330.5 32.5,1330.5C 32.5,1156.83 32.5,983.167 32.5,809.5C 107.501,809.333 182.501,809.5 257.5,810C 287.562,811.012 316.562,817.012 344.5,828C 389.622,849.473 416.122,884.973 424,934.5C 428.773,966.702 425.439,998.035 414,1028.5C 395.457,1069.04 364.623,1095.2 321.5,1107C 300.22,1112.82 278.553,1116.16 256.5,1117C 213.168,1117.5 169.835,1117.67 126.5,1117.5C 126.5,1188.5 126.5,1259.5 126.5,1330.5 Z M 126.5,882.5 C 165.168,882.333 203.835,882.5 242.5,883C 316.742,888.591 344.242,927.424 325,999.5C 316.892,1016.94 303.725,1028.77 285.5,1035C 272.843,1039.33 259.843,1042 246.5,1043C 206.501,1043.5 166.501,1043.67 126.5,1043.5C 126.5,989.833 126.5,936.167 126.5,882.5 Z"/></g>
<g><path style="opacity:0.989" fill="#e8f0f1" d="M 882.5,1330.5 C 849.833,1330.5 817.167,1330.5 784.5,1330.5C 770.813,1283.76 756.813,1237.09 742.5,1190.5C 675.17,1189.5 607.837,1189.17 540.5,1189.5C 526.498,1236.51 512.498,1283.51 498.5,1330.5C 468.167,1330.5 437.833,1330.5 407.5,1330.5C 407.598,1326.04 408.431,1321.7 410,1317.5C 463.488,1148.55 516.821,979.547 570,810.5C 594.929,809.836 619.929,809.502 645,809.5C 670.215,809.505 695.215,810.171 720,811.5C 774,982.167 828,1152.83 882,1323.5C 882.497,1325.81 882.663,1328.14 882.5,1330.5 Z M 634.5,883.5 C 639.762,883.195 644.928,883.529 650,884.5C 673.326,961.473 696.492,1038.47 719.5,1115.5C 667.499,1115.67 615.499,1115.5 563.5,1115C 587.27,1037.86 610.937,960.691 634.5,883.5 Z"/></g>
<g><path style="opacity:0.989" fill="#e8f0f1" d="M 1340.5,1330.5 C 1307.5,1330.5 1274.5,1330.5 1241.5,1330.5C 1203.41,1254.65 1165.58,1178.65 1128,1102.5C 1093.91,1101.5 1059.74,1101.17 1025.5,1101.5C 1025.5,1177.83 1025.5,1254.17 1025.5,1330.5C 994.5,1330.5 963.5,1330.5 932.5,1330.5C 932.5,1156.83 932.5,983.167 932.5,809.5C 1009.5,809.333 1086.5,809.5 1163.5,810C 1198.13,810.824 1230.8,819.158 1261.5,835C 1299.42,857.301 1320.92,890.468 1326,934.5C 1331.74,1014.06 1296.57,1065.4 1220.5,1088.5C 1260.33,1166.83 1300.17,1245.17 1340,1323.5C 1340.5,1325.81 1340.66,1328.14 1340.5,1330.5 Z M 1025.5,882.5 C 1066.5,882.333 1107.5,882.5 1148.5,883C 1169.89,883.595 1189.56,889.595 1207.5,901C 1223.83,915.808 1231.5,934.308 1230.5,956.5C 1231.56,988.224 1217.56,1010.06 1188.5,1022C 1175.21,1026.59 1161.55,1029.26 1147.5,1030C 1106.83,1030.5 1066.17,1030.67 1025.5,1030.5C 1025.5,981.167 1025.5,931.833 1025.5,882.5 Z"/></g>
<g><path style="opacity:0.989" fill="#e8f0f1" d="M 1847.5,1330.5 C 1815.17,1330.5 1782.83,1330.5 1750.5,1330.5C 1736.07,1283.7 1721.73,1236.87 1707.5,1190C 1640.5,1189.33 1573.5,1189.33 1506.5,1190C 1491.63,1236.66 1477.29,1283.5 1463.5,1330.5C 1433.5,1330.5 1403.5,1330.5 1373.5,1330.5C 1373.34,1327.48 1373.5,1324.48 1374,1321.5C 1427.67,1151.5 1481.33,981.5 1535,811.5C 1559.79,810.171 1584.79,809.505 1610,809.5C 1635.21,809.505 1660.21,810.171 1685,811.5C 1738.85,981.88 1792.85,1152.21 1847,1322.5C 1847.5,1325.15 1847.66,1327.81 1847.5,1330.5 Z M 1599.5,883.5 C 1604.83,883.5 1610.17,883.5 1615.5,883.5C 1638.14,960.883 1661.47,1038.05 1685.5,1115C 1633.17,1115.67 1580.83,1115.67 1528.5,1115C 1552.67,1037.99 1576.34,960.827 1599.5,883.5 Z"/></g>
<g><path style="opacity:0.988" fill="#e8f0f1" d="M 2659.5,1330.5 C 2629.5,1330.5 2599.5,1330.5 2569.5,1330.5C 2569.5,1183.17 2569.5,1035.83 2569.5,888.5C 2564.17,888.5 2558.83,888.5 2553.5,888.5C 2515.17,1035.83 2476.83,1183.17 2438.5,1330.5C 2387.5,1330.5 2336.5,1330.5 2285.5,1330.5C 2246.85,1183.58 2208.35,1036.58 2170,889.5C 2164.93,888.529 2159.76,888.195 2154.5,888.5C 2154.5,1035.83 2154.5,1183.17 2154.5,1330.5C 2126.17,1330.5 2097.83,1330.5 2069.5,1330.5C 2069.5,1156.83 2069.5,983.167 2069.5,809.5C 2125.5,809.167 2181.5,809.5 2237.5,810.5C 2276.71,958.79 2315.71,1107.12 2354.5,1255.5C 2361.29,1256.1 2367.79,1255.43 2374,1253.5C 2413.18,1105.79 2452.51,958.123 2492,810.5C 2547.76,809.502 2603.6,809.169 2659.5,809.5C 2659.5,983.167 2659.5,1156.83 2659.5,1330.5 Z"/></g>
<g><path style="opacity:0.988" fill="#e8f0f1" d="M 3102.5,1330.5 C 2986.17,1330.5 2869.83,1330.5 2753.5,1330.5C 2753.5,1156.83 2753.5,983.167 2753.5,809.5C 2868.5,809.5 2983.5,809.5 3098.5,809.5C 3098.5,834.833 3098.5,860.167 3098.5,885.5C 3014.83,885.5 2931.17,885.5 2847.5,885.5C 2847.5,928.833 2847.5,972.167 2847.5,1015.5C 2912.83,1015.5 2978.17,1015.5 3043.5,1015.5C 3043.5,1039.5 3043.5,1063.5 3043.5,1087.5C 2978.17,1087.5 2912.83,1087.5 2847.5,1087.5C 2847.5,1142.83 2847.5,1198.17 2847.5,1253.5C 2932.5,1253.5 3017.5,1253.5 3102.5,1253.5C 3102.5,1279.17 3102.5,1304.83 3102.5,1330.5 Z"/></g>
<g><path style="opacity:0.987" fill="#e8f0f1" d="M 3615.5,1330.5 C 3560.17,1330.5 3504.83,1330.5 3449.5,1330.5C 3388.77,1182.49 3327.94,1034.49 3267,886.5C 3262.14,884.586 3256.98,883.919 3251.5,884.5C 3251.5,1033.17 3251.5,1181.83 3251.5,1330.5C 3222.83,1330.5 3194.17,1330.5 3165.5,1330.5C 3165.5,1156.83 3165.5,983.167 3165.5,809.5C 3220.84,809.167 3276.17,809.5 3331.5,810.5C 3392.8,958.751 3453.8,1107.08 3514.5,1255.5C 3519.5,1255.5 3524.5,1255.5 3529.5,1255.5C 3529.5,1106.83 3529.5,958.167 3529.5,809.5C 3558.17,809.5 3586.83,809.5 3615.5,809.5C 3615.5,983.167 3615.5,1156.83 3615.5,1330.5 Z"/></g>
<g><path style="opacity:0.993" fill="#e8f0f1" d="M 3930.5,1330.5 C 3899.17,1330.5 3867.83,1330.5 3836.5,1330.5C 3836.5,1182.17 3836.5,1033.83 3836.5,885.5C 3782.17,885.5 3727.83,885.5 3673.5,885.5C 3673.5,860.167 3673.5,834.833 3673.5,809.5C 3813.83,809.5 3954.17,809.5 4094.5,809.5C 4094.5,834.833 4094.5,860.167 4094.5,885.5C 4039.83,885.5 3985.17,885.5 3930.5,885.5C 3930.5,1033.83 3930.5,1182.17 3930.5,1330.5 Z"/></g>
<g><path style="opacity:0.988" fill="#e8f0f1" d="M 4500.5,1253.5 C 4500.5,1279.17 4500.5,1304.83 4500.5,1330.5C 4384.17,1330.5 4267.83,1330.5 4151.5,1330.5C 4151.5,1156.83 4151.5,983.167 4151.5,809.5C 4266.5,809.5 4381.5,809.5 4496.5,809.5C 4496.5,834.833 4496.5,860.167 4496.5,885.5C 4412.83,885.5 4329.17,885.5 4245.5,885.5C 4245.5,928.833 4245.5,972.167 4245.5,1015.5C 4310.83,1015.5 4376.17,1015.5 4441.5,1015.5C 4441.5,1039.5 4441.5,1063.5 4441.5,1087.5C 4376.17,1087.5 4310.83,1087.5 4245.5,1087.5C 4245.5,1142.83 4245.5,1198.17 4245.5,1253.5C 4330.5,1253.5 4415.5,1253.5 4500.5,1253.5 Z"/></g>
</svg>
