<?xml version="1.0" encoding="UTF-8"?>
<!DOCTYPE svg PUBLIC "-//W3C//DTD SVG 1.1//EN" "http://www.w3.org/Graphics/SVG/1.1/DTD/svg11.dtd">
<svg xmlns="http://www.w3.org/2000/svg" version="1.1" width="4501px" height="1270px" style="shape-rendering:geometricPrecision; text-rendering:geometricPrecision; image-rendering:optimizeQuality; fill-rule:evenodd; clip-rule:evenodd" xmlns:xlink="http://www.w3.org/1999/xlink">
<g><path style="opacity:0.996" fill="#86f873" d="M 945.5,-0.5 C 951.5,-0.5 957.5,-0.5 963.5,-0.5C 1064.17,0.893506 1139,45.2268 1188,132.5C 1216.53,188.085 1235.86,246.751 1246,308.5C 1259.45,387.592 1266.79,467.259 1268,547.5C 1268.67,605.833 1268.67,664.167 1268,722.5C 1266.92,811.327 1257.92,899.327 1241,986.5C 1230.76,1037.89 1213.76,1086.89 1190,1133.5C 1145.04,1217.42 1074.87,1262.75 979.5,1269.5C 962.833,1269.5 946.167,1269.5 929.5,1269.5C 837.308,1263.35 768.474,1220.35 723,1140.5C 699.693,1097.25 682.693,1051.58 672,1003.5C 654.033,920.13 644.033,835.797 642,750.5C 639.509,659.14 640.176,567.806 644,476.5C 647.499,397.342 658.832,319.342 678,242.5C 690.954,192.263 711.621,145.597 740,102.5C 779.171,47.475 832.338,14.6417 899.5,4C 914.926,1.85628 930.259,0.356277 945.5,-0.5 Z M 951.5,178.5 C 972.179,179.087 988.013,188.087 999,205.5C 1013.19,229.739 1022.86,255.739 1028,283.5C 1037.43,331.4 1043.43,379.734 1046,428.5C 1049.88,497.278 1051.38,566.111 1050.5,635C 1052.42,730.077 1048.58,824.91 1039,919.5C 1035.01,958.805 1026.67,997.138 1014,1034.5C 1007.83,1052.66 997.659,1068.16 983.5,1081C 954.845,1097.47 930.679,1092.3 911,1065.5C 896.279,1040.68 886.279,1014.01 881,985.5C 871.493,937.273 865.493,888.606 863,839.5C 859.146,771.388 857.646,703.221 858.5,635C 856.69,540.26 860.523,445.76 870,351.5C 873.748,314.757 881.082,278.757 892,243.5C 897.558,225.71 906.225,209.71 918,195.5C 927.291,185.938 938.458,180.271 951.5,178.5 Z"/></g>
<g><path style="opacity:0.996" fill="#86f873" d="M 2307.5,-0.5 C 2313.5,-0.5 2319.5,-0.5 2325.5,-0.5C 2427.85,1.40026 2503.35,47.0669 2552,136.5C 2579.27,191.317 2597.94,248.983 2608,309.5C 2621.84,391.577 2629.17,474.244 2630,557.5C 2630.85,621.174 2630.51,684.841 2629,748.5C 2627,835.852 2616.66,922.185 2598,1007.5C 2587.53,1053.43 2571.2,1097.09 2549,1138.5C 2503.78,1219.71 2434.62,1263.38 2341.5,1269.5C 2324.83,1269.5 2308.17,1269.5 2291.5,1269.5C 2196.79,1263.25 2126.96,1218.59 2082,1135.5C 2058.45,1089.86 2041.45,1041.86 2031,991.5C 2013.49,903.711 2004.15,815.044 2003,725.5C 2002.33,665.167 2002.33,604.833 2003,544.5C 2004.27,463.215 2011.94,382.549 2026,302.5C 2036.43,242.874 2055.43,186.207 2083,132.5C 2132,45.2268 2206.83,0.893506 2307.5,-0.5 Z M 2313.5,178.5 C 2332.15,178.909 2346.99,186.576 2358,201.5C 2373.95,226.996 2384.62,254.663 2390,284.5C 2399.53,333.06 2405.53,382.06 2408,431.5C 2411.82,499.28 2413.32,567.113 2412.5,635C 2414.18,729.402 2410.35,823.569 2401,917.5C 2397.09,956.381 2389.09,994.381 2377,1031.5C 2370.33,1052.04 2358.83,1069.2 2342.5,1083C 2316.02,1096.44 2293.52,1091.61 2275,1068.5C 2266.5,1056.5 2259.83,1043.5 2255,1029.5C 2242.9,991.022 2234.9,951.688 2231,911.5C 2225.4,857.642 2222.07,803.642 2221,749.5C 2218.31,642.113 2219.64,534.779 2225,427.5C 2227.52,380.445 2233.19,333.779 2242,287.5C 2247.18,259.637 2256.51,233.303 2270,208.5C 2279.81,191.499 2294.31,181.499 2313.5,178.5 Z"/></g>
<g><path style="opacity:0.995" fill="#86f873" d="M -0.5,17.5 C 96.1672,17.3333 192.834,17.5 289.5,18C 455.886,22.0562 546.386,106.89 561,272.5C 566.82,330.063 565.153,387.397 556,444.5C 549.986,482.837 535.986,517.837 514,549.5C 480.345,591.416 436.512,614.583 382.5,619C 326.179,620.405 269.846,620.905 213.5,620.5C 213.5,635.5 213.5,650.5 213.5,665.5C 305.5,665.5 397.5,665.5 489.5,665.5C 526.576,861.214 563.91,1056.88 601.5,1252.5C 524.83,1252.83 448.164,1252.5 371.5,1251.5C 349.678,1110.9 328.178,970.234 307,829.5C 303.93,806.217 297.597,783.884 288,762.5C 280.049,746.207 267.216,736.374 249.5,733C 237.505,732.5 225.505,732.333 213.5,732.5C 213.5,905.833 213.5,1079.17 213.5,1252.5C 142.167,1252.5 70.8333,1252.5 -0.5,1252.5C -0.5,840.833 -0.5,429.167 -0.5,17.5 Z M 213.5,182.5 C 231.249,181.908 248.916,182.741 266.5,185C 298.273,192.769 320.106,211.935 332,242.5C 339.801,263.502 344.801,285.169 347,307.5C 352.701,359.867 350.368,411.867 340,463.5C 333.474,495.394 318.974,522.894 296.5,546C 282.461,558.182 266.128,565.182 247.5,567C 236.172,567.5 224.838,567.667 213.5,567.5C 213.5,439.167 213.5,310.833 213.5,182.5 Z"/></g>
<g><path style="opacity:0.996" fill="#86f873" d="M 1367.5,17.5 C 1470.83,17.3333 1574.17,17.5 1677.5,18C 1720.46,19.2148 1760.46,30.5481 1797.5,52C 1831.4,74.2344 1856.23,104.068 1872,141.5C 1887.56,179.967 1896.23,219.967 1898,261.5C 1900.82,308.76 1898.49,355.76 1891,402.5C 1884,446.208 1867.67,485.875 1842,521.5C 1809.08,561.545 1766.58,582.878 1714.5,585.5C 1714.5,589.5 1714.5,593.5 1714.5,597.5C 1802.61,599.61 1865.44,640.277 1903,719.5C 1922.27,764.867 1933.27,812.201 1936,861.5C 1939.22,913.335 1937.56,965.001 1931,1016.5C 1925.36,1059.07 1912.7,1099.41 1893,1137.5C 1858.5,1196.6 1807.34,1232.43 1739.5,1245C 1717.03,1249.18 1694.36,1251.51 1671.5,1252C 1570.17,1252.5 1468.83,1252.67 1367.5,1252.5C 1367.5,840.833 1367.5,429.167 1367.5,17.5 Z M 1581.5,164.5 C 1595.2,164.245 1608.86,164.745 1622.5,166C 1656.15,170.324 1679.31,188.157 1692,219.5C 1699.86,240.458 1704.53,262.125 1706,284.5C 1709.49,329.763 1707.49,374.763 1700,419.5C 1695.82,443.52 1686.48,465.187 1672,484.5C 1655.64,502.76 1635.14,512.594 1610.5,514C 1600.84,514.5 1591.17,514.666 1581.5,514.5C 1581.5,397.833 1581.5,281.167 1581.5,164.5 Z M 1581.5,663.5 C 1608.43,661.1 1634.1,665.6 1658.5,677C 1681.18,691.023 1697.35,710.523 1707,735.5C 1716.96,762.288 1722.96,789.955 1725,818.5C 1729.39,872.471 1727.06,926.138 1718,979.5C 1713.04,1008.09 1701.38,1033.42 1683,1055.5C 1665.95,1072.1 1645.45,1081.27 1621.5,1083C 1608.17,1083.5 1594.84,1083.67 1581.5,1083.5C 1581.5,943.5 1581.5,803.5 1581.5,663.5 Z"/></g>
<g><path style="opacity:0.997" fill="#86f873" d="M 2729.5,17.5 C 2800.17,17.5 2870.83,17.5 2941.5,17.5C 2941.5,365.167 2941.5,712.833 2941.5,1060.5C 3013.17,1060.5 3084.83,1060.5 3156.5,1060.5C 3149.94,1124.55 3142.94,1188.55 3135.5,1252.5C 3000.17,1252.5 2864.83,1252.5 2729.5,1252.5C 2729.5,840.833 2729.5,429.167 2729.5,17.5 Z"/></g>
<g><path style="opacity:0.995" fill="#86f873" d="M 3366.5,17.5 C 3476.07,17.1679 3585.57,17.5012 3695,18.5C 3749.83,429.8 3804.33,841.133 3858.5,1252.5C 3785.5,1252.5 3712.5,1252.5 3639.5,1252.5C 3630.57,1163.48 3621.57,1074.48 3612.5,985.5C 3554.17,984.5 3495.84,984.167 3437.5,984.5C 3428.09,1073.82 3418.76,1163.16 3409.5,1252.5C 3339.17,1252.5 3268.83,1252.5 3198.5,1252.5C 3254.13,840.744 3310.13,429.077 3366.5,17.5 Z M 3522.5,208.5 C 3527.83,208.5 3533.17,208.5 3538.5,208.5C 3558.19,412.124 3577.53,615.79 3596.5,819.5C 3549.5,819.5 3502.5,819.5 3455.5,819.5C 3477.47,615.776 3499.8,412.109 3522.5,208.5 Z"/></g>
<g><path style="opacity:0.996" fill="#86f873" d="M 4500.5,890.5 C 4500.5,906.5 4500.5,922.5 4500.5,938.5C 4499.34,983.384 4493.18,1027.72 4482,1071.5C 4449.41,1185.06 4373.91,1244.89 4255.5,1251C 4147.18,1252.45 4038.84,1252.95 3930.5,1252.5C 3930.5,840.833 3930.5,429.167 3930.5,17.5C 4033.5,17.3333 4136.5,17.5 4239.5,18C 4360.72,24.8879 4432.22,88.0546 4454,207.5C 4463.64,269.439 4463.98,331.439 4455,393.5C 4448.65,439.577 4432.32,481.577 4406,519.5C 4372.83,560.668 4329.67,582.668 4276.5,585.5C 4276.5,589.5 4276.5,593.5 4276.5,597.5C 4368.4,600.171 4432.56,643.504 4469,727.5C 4485.29,768.285 4494.96,810.618 4498,854.5C 4498.75,866.663 4499.58,878.663 4500.5,890.5 Z M 4144.5,164.5 C 4163.38,163.584 4182.05,165.084 4200.5,169C 4223.42,175.923 4240.26,190.089 4251,211.5C 4260.6,233.16 4266.27,255.827 4268,279.5C 4272.36,327.113 4270.36,374.446 4262,421.5C 4257.34,451.002 4244.17,475.835 4222.5,496C 4210.34,505.169 4196.67,510.835 4181.5,513C 4169.21,514.315 4156.87,514.815 4144.5,514.5C 4144.5,397.833 4144.5,281.167 4144.5,164.5 Z M 4144.5,663.5 C 4171.92,661.058 4197.92,665.891 4222.5,678C 4244.26,691.674 4259.76,710.507 4269,734.5C 4278.7,759.973 4284.7,786.306 4287,813.5C 4290.3,853.831 4290.3,894.164 4287,934.5C 4284.92,964.903 4278.25,994.236 4267,1022.5C 4251.2,1059.16 4223.37,1079.33 4183.5,1083C 4170.5,1083.5 4157.5,1083.67 4144.5,1083.5C 4144.5,943.5 4144.5,803.5 4144.5,663.5 Z"/></g>
</svg>
