<svg xmlns="http://www.w3.org/2000/svg" xmlns:xlink="http://www.w3.org/1999/xlink" width="1080" zoomAndPan="magnify" viewBox="0 0 810 809.999993" height="1080" preserveAspectRatio="xMidYMid meet" version="1.0"><defs><clipPath id="cca1dc6e9d"><path d="M 126 379.851562 L 683 379.851562 L 683 430.101562 L 126 430.101562 Z M 126 379.851562 " clip-rule="nonzero"/></clipPath></defs><g clip-path="url(#cca1dc6e9d)"><path fill="#86f873" d="M 399.832031 126.199219 C 413.886719 124.90625 423.652344 130.714844 429.128906 143.617188 C 429.917969 222.261719 430.183594 300.90625 429.917969 379.558594 C 508.566406 379.292969 587.214844 379.558594 665.859375 380.347656 C 682.347656 389.007812 686.835938 401.9375 679.320312 419.144531 C 675.734375 423.789062 671.246094 427.21875 665.859375 429.4375 C 587.214844 430.230469 508.566406 430.492188 429.917969 430.230469 C 430.183594 508.878906 429.917969 587.523438 429.128906 666.167969 C 420.46875 682.660156 407.535156 687.144531 390.332031 679.628906 C 385.6875 676.042969 382.257812 671.554688 380.039062 666.167969 C 379.246094 587.523438 378.984375 508.878906 379.246094 430.230469 C 300.597656 430.492188 221.953125 430.230469 143.304688 429.4375 C 126.816406 420.777344 122.332031 407.847656 129.847656 390.640625 C 133.433594 385.996094 137.917969 382.566406 143.304688 380.347656 C 221.953125 379.558594 300.597656 379.292969 379.246094 379.558594 C 378.984375 300.90625 379.246094 222.261719 380.039062 143.617188 C 384.054688 134.566406 390.65625 128.761719 399.832031 126.199219 Z M 399.832031 126.199219 " fill-opacity="0.997" fill-rule="evenodd"/></g></svg>