<?xml version="1.0" encoding="UTF-8"?>
<!DOCTYPE svg PUBLIC "-//W3C//DTD SVG 1.1//EN" "http://www.w3.org/Graphics/SVG/1.1/DTD/svg11.dtd">
<svg xmlns="http://www.w3.org/2000/svg" version="1.1" width="4501px" height="4501px" style="shape-rendering:geometricPrecision; text-rendering:geometricPrecision; image-rendering:optimizeQuality; fill-rule:evenodd; clip-rule:evenodd" xmlns:xlink="http://www.w3.org/1999/xlink">
<g><path style="opacity:0.999" fill="#065043" d="M 2840.5,-0.5 C 3189.5,-0.5 3538.5,-0.5 3887.5,-0.5C 3910.87,3.60414 3929.04,15.6041 3942,35.5C 4112.41,331.33 4283.08,626.997 4454,922.5C 4468.56,948.812 4469.23,975.478 4456,1002.5C 4312.75,1250 4169.75,1497.67 4027,1745.5C 4003.59,1779.2 3972.09,1790.03 3932.5,1778C 3913.06,1770.23 3899.23,1756.73 3891,1737.5C 3779.75,1467.93 3601.91,1253.76 3357.5,1095C 3094.4,930.227 2807.73,860.56 2497.5,886C 2474.12,888.228 2450.78,890.894 2427.5,894C 2387.05,894.698 2360.55,875.865 2348,837.5C 2342.89,815.487 2346.22,794.82 2358,775.5C 2500.92,528.663 2643.59,281.663 2786,34.5C 2799.11,14.8781 2817.28,3.21148 2840.5,-0.5 Z"/></g>
<g><path style="opacity:0.999" fill="#065043" d="M 611.5,1285.5 C 905.5,1285.33 1199.5,1285.5 1493.5,1286C 1521.25,1291.08 1540.75,1306.58 1552,1332.5C 1561.78,1358.77 1558.78,1383.43 1543,1406.5C 1363.47,1637.66 1266.81,1900.33 1253,2194.5C 1242.93,2509.89 1328.93,2795.55 1511,3051.5C 1521.76,3066.01 1532.76,3080.35 1544,3094.5C 1558.83,3117.42 1561.49,3141.75 1552,3167.5C 1540.1,3193.71 1519.93,3209.21 1491.5,3214C 1198.83,3214.67 906.167,3214.67 613.5,3214C 590.117,3210.6 571.951,3199.1 559,3179.5C 386.333,2880.17 213.667,2580.83 41,2281.5C 32.7444,2261.3 32.411,2240.97 40,2220.5C 212.081,1921.34 384.414,1622.34 557,1323.5C 569.554,1302.78 587.72,1290.11 611.5,1285.5 Z"/></g>
<g><path style="opacity:0.999" fill="#065043" d="M 3884.5,4500.5 C 3537.5,4500.5 3190.5,4500.5 2843.5,4500.5C 2818.35,4497.17 2798.85,4484.84 2785,4463.5C 2642.25,4215.67 2499.25,3968 2356,3720.5C 2340.18,3689.66 2342.51,3660.33 2363,3632.5C 2380.89,3612.14 2403.39,3603.31 2430.5,3606C 2740.06,3646.75 3030.73,3590.75 3302.5,3438C 3555.48,3289.56 3743.98,3082.4 3868,2816.5C 3877.57,2793.13 3887.9,2770.13 3899,2747.5C 3921.17,2720.33 3949.34,2711.17 3983.5,2720C 4001.75,2725.6 4015.92,2736.43 4026,2752.5C 4170.92,3003.34 4315.59,3254.34 4460,3505.5C 4468.69,3529.59 4467.02,3552.93 4455,3575.5C 4283.67,3872.17 4112.33,4168.83 3941,4465.5C 3927.11,4485.24 3908.27,4496.91 3884.5,4500.5 Z"/></g>
</svg>
