<?xml version="1.0" encoding="UTF-8"?>
<!DOCTYPE svg PUBLIC "-//W3C//DTD SVG 1.1//EN" "http://www.w3.org/Graphics/SVG/1.1/DTD/svg11.dtd">
<svg xmlns="http://www.w3.org/2000/svg" version="1.1" width="4501px" height="4501px" style="shape-rendering:geometricPrecision; text-rendering:geometricPrecision; image-rendering:optimizeQuality; fill-rule:evenodd; clip-rule:evenodd" xmlns:xlink="http://www.w3.org/1999/xlink">
<g><path style="opacity:0.953" fill="#065043" d="M 2226.5,145.5 C 2679,142.413 3090.33,269.246 3460.5,526C 3789.46,760.301 4032.63,1063.47 4190,1435.5C 4337.53,1797.37 4382.53,2171.71 4325,2558.5C 4261.33,2955.75 4099.33,3305.75 3839,3608.5C 3574.97,3910.21 3250.8,4121.04 2866.5,4241C 2534.07,4340.05 2197.4,4357.39 1856.5,4293C 1490.08,4219.61 1166.41,4061.94 885.5,3820C 588.052,3559.31 378.885,3239.81 258,2861.5C 155.927,2526.85 136.927,2187.52 201,1843.5C 273.804,1475.6 431.471,1150.6 674,868.5C 932.302,573.079 1248.8,364.579 1623.5,243C 1819.89,181.267 2020.89,148.767 2226.5,145.5 Z M 2245.5,162.5 C 2249.31,162.163 2252.97,162.663 2256.5,164C 2319.76,208.911 2380.43,257.244 2438.5,309C 2370.85,307.734 2303.18,306.901 2235.5,306.5C 2178.16,306.883 2120.82,307.383 2063.5,308C 2121.76,256.216 2182.42,207.716 2245.5,162.5 Z M 2285.5,163.5 C 2391.11,164.126 2496.11,173.626 2600.5,192C 2555.37,229.117 2512.04,268.45 2470.5,310C 2468.83,310.667 2467.17,310.667 2465.5,310C 2408.22,257.567 2348.22,208.733 2285.5,163.5 Z M 2184.5,163.5 C 2194.17,163.334 2203.84,163.5 2213.5,164C 2153.18,208.306 2095.18,255.64 2039.5,306C 2037.48,307.866 2035.15,309.033 2032.5,309.5C 2031.5,309.333 2030.5,309.167 2029.5,309C 1988.26,269.089 1945.93,230.589 1902.5,193.5C 1995.96,177.115 2089.96,167.115 2184.5,163.5 Z M 2628.5,196.5 C 2645.22,199.342 2661.88,202.509 2678.5,206C 2740.39,249.967 2799.72,297.301 2856.5,348C 2777.02,334.465 2697.02,324.799 2616.5,319C 2577.51,316.285 2538.51,313.785 2499.5,311.5C 2540.84,271.047 2583.84,232.714 2628.5,196.5 Z M 1869.5,198.5 C 1871.2,198.34 1872.87,198.506 1874.5,199C 1917.95,233.772 1959.62,270.772 1999.5,310C 1880.12,313.638 1761.79,326.304 1644.5,348C 1700.32,299.111 1758.32,253.111 1818.5,210C 1835.56,205.957 1852.56,202.123 1869.5,198.5 Z M 2726.5,217.5 C 2800.93,233.798 2874.27,254.965 2946.5,281C 2927.13,304.265 2908.13,327.765 2889.5,351.5C 2837.16,304.197 2782.83,259.53 2726.5,217.5 Z M 1767.5,221.5 C 1713.46,262.517 1661.13,305.85 1610.5,351.5C 1593.22,329.713 1575.72,308.046 1558,286.5C 1557.52,285.552 1557.35,284.552 1557.5,283.5C 1626.39,259.11 1696.39,238.443 1767.5,221.5 Z M 3226.5,454.5 C 3122.3,417.046 3016.3,385.546 2908.5,360C 2927.33,336.5 2946.17,313 2965,289.5C 2966.39,288.446 2967.89,288.28 2969.5,289C 3061.21,335.296 3146.88,390.463 3226.5,454.5 Z M 1266.5,454.5 C 1299.78,422.047 1334.45,391.214 1370.5,362C 1424.7,336.149 1479.86,312.649 1536,291.5C 1554.88,314.044 1573.38,336.877 1591.5,360C 1481.45,385.74 1373.12,417.24 1266.5,454.5 Z M 2126.5,325.5 C 2196.17,325.333 2265.83,325.5 2335.5,326C 2374.18,326.514 2412.85,327.514 2451.5,329C 2381,401.15 2313.83,475.983 2250,553.5C 2186.47,475.414 2119.3,400.247 2048.5,328C 2074.66,327.033 2100.66,326.2 2126.5,325.5 Z M 1999.5,328.5 C 2004.18,328.334 2008.85,328.501 2013.5,329C 1929.47,407.693 1849.64,490.193 1774,576.5C 1726.09,507.183 1676.59,439.016 1625.5,372C 1712.94,353.319 1801.27,340.985 1890.5,335C 1926.97,332.53 1963.31,330.363 1999.5,328.5 Z M 2488.5,331.5 C 2589.8,334.192 2690.8,342.692 2791.5,357C 2819.35,361.03 2847.01,366.03 2874.5,372C 2823.81,438.853 2774.48,506.686 2726.5,575.5C 2688.58,533.409 2650.08,491.742 2611,450.5C 2571.21,409.541 2530.38,369.874 2488.5,331.5 Z M 2027.5,339.5 C 2040.75,351.244 2053.58,363.578 2066,376.5C 2121.03,435.182 2174.19,495.349 2225.5,557C 2150.44,558.072 2075.44,560.739 2000.5,565C 1931.37,569.511 1862.37,575.177 1793.5,582C 1867.5,497.494 1945.5,416.66 2027.5,339.5 Z M 2703.5,578.5 C 2560.8,565.515 2417.8,558.348 2274.5,557C 2336.68,481.635 2402.35,409.135 2471.5,339.5C 2553.02,415.351 2630.35,495.018 2703.5,578.5 Z M 3110.5,347.5 C 3169.85,373.506 3227.51,402.672 3283.5,435C 3284.17,435.667 3284.83,436.333 3285.5,437C 3280.79,445.581 3275.96,454.081 3271,462.5C 3270.28,463.451 3269.45,463.617 3268.5,463C 3218.07,421.301 3165.41,382.801 3110.5,347.5 Z M 2892.5,380.5 C 2961.14,443.971 3026.97,510.304 3090,579.5C 3109.83,602 3129.67,624.5 3149.5,647C 3015.9,619.401 2881.23,598.067 2745.5,583C 2793.56,514.782 2842.56,447.282 2892.5,380.5 Z M 1606.5,381.5 C 1608.42,382.909 1610.25,384.576 1612,386.5C 1661.52,452.189 1709.69,518.855 1756.5,586.5C 1617.66,603.89 1480.16,628.557 1344,660.5C 1342.63,659.407 1342.3,658.074 1343,656.5C 1425.74,560.257 1513.57,468.591 1606.5,381.5 Z M 1572.5,383.5 C 1573.55,383.351 1574.55,383.517 1575.5,384C 1488.96,464.857 1407.8,550.357 1332,640.5C 1301.62,588.394 1271.78,536.061 1242.5,483.5C 1350.79,444.264 1460.79,410.931 1572.5,383.5 Z M 2924.5,384.5 C 3037.22,410.455 3147.72,444.455 3256,486.5C 3227.5,537.807 3198.17,588.807 3168,639.5C 3091.96,549.954 3010.8,464.954 2924.5,384.5 Z M 1299.5,397.5 C 1275.93,418.906 1252.76,440.906 1230,463.5C 1225.71,456.415 1221.54,449.249 1217.5,442C 1244.41,426.379 1271.74,411.546 1299.5,397.5 Z M 3467.5,554.5 C 3407.04,527.068 3346.04,500.901 3284.5,476C 3290.63,466.25 3296.63,456.417 3302.5,446.5C 3359.7,479.413 3414.7,515.413 3467.5,554.5 Z M 1079.5,530.5 C 1119,502.821 1159.5,476.488 1201,451.5C 1205.37,459.083 1209.87,466.583 1214.5,474C 1169.11,491.961 1124.11,510.795 1079.5,530.5 Z M 3274.5,493.5 C 3320.91,532.064 3365.41,573.064 3408,616.5C 3450.68,660.173 3491.52,705.339 3530.5,752C 3416.32,713.619 3300.32,681.452 3182.5,655.5C 3182.49,653.692 3182.99,652.025 3184,650.5C 3214.39,598.279 3244.56,545.945 3274.5,493.5 Z M 1224.5,494.5 C 1226.43,495.642 1227.93,497.308 1229,499.5C 1258.27,551.092 1287.93,602.425 1318,653.5C 1318.67,654.5 1318.67,655.5 1318,656.5C 1314.48,661.019 1310.65,665.185 1306.5,669C 1194.17,696.277 1083.5,729.11 974.5,767.5C 973.479,766.998 973.312,766.332 974,765.5C 1054.76,672.893 1138.26,582.559 1224.5,494.5 Z M 1185.5,505.5 C 1186.24,505.369 1186.91,505.536 1187.5,506C 1154.94,538.56 1123.1,571.727 1092,605.5C 1045.59,656.686 999.423,708.019 953.5,759.5C 939.147,725.939 925.48,692.106 912.5,658C 938.922,635.574 965.922,613.907 993.5,593C 1056.52,561.318 1120.52,532.152 1185.5,505.5 Z M 3331.5,516.5 C 3405.9,546.697 3478.9,580.197 3550.5,617C 3563.96,627.456 3577.12,638.289 3590,649.5C 3578.51,682.501 3565.84,715.168 3552,747.5C 3502.08,687.628 3449.25,630.128 3393.5,575C 3372.64,555.633 3351.97,536.133 3331.5,516.5 Z M 2169.5,576.5 C 2190.17,576.333 2210.84,576.5 2231.5,577C 2146.44,681.05 2065.61,788.216 1989,898.5C 1924.78,798.549 1858.95,699.716 1791.5,602C 1917.28,587.937 2043.28,579.437 2169.5,576.5 Z M 2269.5,576.5 C 2416.89,576.519 2563.89,584.019 2710.5,599C 2642.8,697.554 2576.47,797.054 2511.5,897.5C 2433.89,788.22 2353.22,681.22 2269.5,576.5 Z M 2249.5,586.5 C 2332.76,688.256 2412.42,792.756 2488.5,900C 2332.17,896.519 2175.84,896.686 2019.5,900.5C 2017.17,900.167 2014.83,899.833 2012.5,899.5C 2088.07,792.595 2167.07,688.261 2249.5,586.5 Z M 2749.5,603.5 C 2884.84,617.166 3019.17,638.666 3152.5,668C 3102.87,753.418 3053.37,838.918 3004,924.5C 2941.33,838.179 2875.99,753.845 2808,671.5C 2788.64,648.641 2769.14,625.975 2749.5,603.5 Z M 1741.5,607.5 C 1743.2,607.34 1744.87,607.506 1746.5,608C 1658.54,710.134 1575.04,815.634 1496,924.5C 1448.63,842.252 1401.13,760.085 1353.5,678C 1442.02,656.629 1531.35,638.963 1621.5,625C 1661.59,618.82 1701.59,612.987 1741.5,607.5 Z M 1770.5,607.5 C 1791.14,636.085 1811.3,665.085 1831,694.5C 1876.87,763.076 1922.37,831.909 1967.5,901C 1816.56,906.767 1665.89,916.434 1515.5,930C 1596.52,819.462 1681.52,711.962 1770.5,607.5 Z M 2728.5,607.5 C 2818.75,711.198 2904.08,818.698 2984.5,930C 2834.42,916.474 2684.09,906.641 2533.5,900.5C 2597.27,801.945 2662.27,704.278 2728.5,607.5 Z M 3812.5,866.5 C 3731.86,829.181 3649.86,795.181 3566.5,764.5C 3580.55,731.059 3594.05,697.392 3607,663.5C 3679.94,726.606 3748.44,794.273 3812.5,866.5 Z M 895.5,672.5 C 896.497,672.47 897.164,672.97 897.5,674C 909.884,707.152 923.051,739.986 937,772.5C 939.607,777.009 938.441,780.175 933.5,782C 849.755,812.572 767.422,846.239 686.5,883C 751.332,808.001 820.999,737.835 895.5,672.5 Z M 3170.5,673.5 C 3172.8,675.294 3174.96,677.294 3177,679.5C 3259.88,779.371 3338.55,882.371 3413,988.5C 3413.69,989.332 3413.52,989.998 3412.5,990.5C 3282.6,966.491 3151.93,947.657 3020.5,934C 3070.76,847.261 3120.76,760.428 3170.5,673.5 Z M 3201.5,680.5 C 3202.95,679.387 3204.61,679.22 3206.5,680C 3319.39,706.139 3430.39,738.639 3539.5,777.5C 3508.47,850.886 3475.81,923.553 3441.5,995.5C 3378.87,906.355 3313.7,819.021 3246,733.5C 3231.62,715.392 3216.79,697.725 3201.5,680.5 Z M 1333.5,681.5 C 1382.14,765.437 1430.81,849.437 1479.5,933.5C 1347.47,948.242 1216.14,967.408 1085.5,991C 1158.57,885.919 1236.23,784.252 1318.5,686C 1323.57,684.322 1328.57,682.822 1333.5,681.5 Z M 1284.5,693.5 C 1286.65,693.696 1286.81,694.696 1285,696.5C 1205.05,793.101 1129.72,893.101 1059,996.5C 1026.5,928.176 995.669,859.176 966.5,789.5C 1071.31,753.226 1177.31,721.226 1284.5,693.5 Z M 3776.5,1075.5 C 3672.97,1046.16 3568.47,1020.82 3463,999.5C 3495.22,928.543 3526.89,857.21 3558,785.5C 3635.95,878.434 3708.78,975.101 3776.5,1075.5 Z M 3592.5,797.5 C 3675.61,827.026 3756.94,861.693 3836.5,901.5C 3836.83,902.667 3837.17,903.833 3837.5,905C 3828.4,963.155 3816.24,1020.66 3801,1077.5C 3736.26,980.597 3666.76,887.263 3592.5,797.5 Z M 945.5,797.5 C 946.496,797.414 947.329,797.748 948,798.5C 976.521,866.211 1006.69,933.211 1038.5,999.5C 937.515,1020.25 837.515,1045.08 738.5,1074C 737.167,1074.67 735.833,1074.67 734.5,1074C 799.394,977.726 869.728,885.559 945.5,797.5 Z M 906.5,811.5 C 908.646,811.696 908.812,812.696 907,814.5C 834.736,899.387 768.069,988.387 707,1081.5C 705.514,1083.58 703.514,1084.91 701,1085.5C 686.277,1029.89 674.111,973.72 664.5,917C 664.833,916.167 665.167,915.333 665.5,914.5C 744.648,877.085 824.981,842.751 906.5,811.5 Z M 2196.5,915.5 C 2262.5,915.567 2328.5,916.067 2394.5,917C 2428.86,917.321 2463.19,918.321 2497.5,920C 2415.04,1048.41 2334.21,1177.91 2255,1308.5C 2250.55,1312.81 2246.89,1312.15 2244,1306.5C 2165.13,1176.57 2084.63,1047.74 2002.5,920C 2067.31,917.677 2131.97,916.177 2196.5,915.5 Z M 3856.5,918.5 C 3920.6,995.949 3978.93,1077.62 4031.5,1163.5C 4030.64,1164.58 4029.64,1164.75 4028.5,1164C 3960.66,1136.11 3891.66,1111.27 3821.5,1089.5C 3821.17,1088.83 3820.83,1088.17 3820.5,1087.5C 3835.31,1031.76 3847.31,975.425 3856.5,918.5 Z M 1950.5,920.5 C 1957.86,920.169 1965.2,920.503 1972.5,921.5C 1884.35,1047.77 1799.19,1176.11 1717,1306.5C 1648.37,1188.08 1579.87,1069.58 1511.5,951C 1574.59,943.798 1637.92,938.131 1701.5,934C 1784.6,928.425 1867.6,923.925 1950.5,920.5 Z M 2527.5,921.5 C 2681.69,924.928 2835.69,934.428 2989.5,950C 2920.67,1068.83 2851.83,1187.67 2783,1306.5C 2701.11,1175.82 2615.94,1047.48 2527.5,921.5 Z M 644.5,932.5 C 649.741,955.196 654.575,978.196 659,1001.5C 665.886,1031.61 672.886,1061.61 680,1091.5C 612.424,1113.36 546.09,1138.36 481,1166.5C 529.78,1084.64 584.28,1006.64 644.5,932.5 Z M 1987.5,933.5 C 2067.85,1058.34 2146.85,1184.18 2224.5,1311C 2060.06,1311.75 1895.72,1314.58 1731.5,1319.5C 1814.14,1188.9 1899.47,1060.23 1987.5,933.5 Z M 2511.5,933.5 C 2600.25,1059.95 2685.91,1188.62 2768.5,1319.5C 2604.28,1314.57 2439.94,1311.74 2275.5,1311C 2353.31,1184.52 2431.98,1058.69 2511.5,933.5 Z M 1473.5,953.5 C 1474.24,953.369 1474.91,953.536 1475.5,954C 1387.35,1076.51 1303.52,1202.01 1224,1330.5C 1170.3,1226.76 1118.46,1122.09 1068.5,1016.5C 1068.83,1015.83 1069.17,1015.17 1069.5,1014.5C 1128.45,1002.17 1187.79,991.674 1247.5,983C 1322.81,971.837 1398.14,962.004 1473.5,953.5 Z M 3024.5,954.5 C 3159.18,967.335 3293.18,986.502 3426.5,1012C 3430.43,1012.58 3431.93,1014.75 3431,1018.5C 3381.46,1123.58 3329.79,1227.58 3276,1330.5C 3196.62,1201.99 3112.78,1076.66 3024.5,954.5 Z M 1493.5,960.5 C 1496.47,963.324 1498.97,966.657 1501,970.5C 1568.37,1087.42 1635.87,1204.25 1703.5,1321C 1546.97,1327.4 1390.63,1336.74 1234.5,1349C 1316.75,1216.63 1403.08,1087.13 1493.5,960.5 Z M 3004.5,960.5 C 3006.02,960.511 3007.18,961.177 3008,962.5C 3098.15,1088.34 3183.98,1217.18 3265.5,1349C 3188.55,1343.34 3111.55,1338 3034.5,1333C 2955.51,1328.5 2876.51,1324.33 2797.5,1320.5C 2867.03,1200.77 2936.03,1080.77 3004.5,960.5 Z M 3456.5,1017.5 C 3570.36,1040.09 3682.86,1068.09 3794,1101.5C 3780.37,1155 3764.7,1208 3747,1260.5C 3731.45,1307.6 3714.78,1354.26 3697,1400.5C 3621.31,1269.74 3541.15,1142.08 3456.5,1017.5 Z M 1041.5,1018.5 C 1042.24,1018.37 1042.91,1018.54 1043.5,1019C 958.458,1142.88 878.291,1270.04 803,1400.5C 767.403,1306.54 735.903,1211.21 708.5,1114.5C 711.476,1109.37 714.809,1104.53 718.5,1100C 824.967,1067.63 932.634,1040.47 1041.5,1018.5 Z M 827.5,1397.5 C 898.559,1273.69 974.393,1153.02 1055,1035.5C 1106.51,1141.19 1158.51,1246.53 1211,1351.5C 1082.82,1363.58 954.983,1378.91 827.5,1397.5 Z M 3444.5,1035.5 C 3525.18,1152.59 3601.18,1272.92 3672.5,1396.5C 3671.5,1396.83 3670.5,1397.17 3669.5,1397.5C 3543.06,1378.54 3416.22,1363.21 3289,1351.5C 3319.91,1289.68 3350.91,1227.68 3382,1165.5C 3403.12,1122.27 3423.95,1078.93 3444.5,1035.5 Z M 683.5,1110.5 C 686.838,1111.19 687.338,1112.86 685,1115.5C 618.246,1220.97 557.579,1330.3 503,1443.5C 490.133,1359.15 481.299,1274.49 476.5,1189.5C 544.373,1160.06 613.373,1133.72 683.5,1110.5 Z M 3822.5,1111.5 C 3822.74,1110.9 3823.24,1110.57 3824,1110.5C 3894.06,1132.29 3962.72,1157.63 4030,1186.5C 4026.42,1269.42 4017.42,1351.75 4003,1433.5C 3957.97,1342.42 3909.64,1253.42 3858,1166.5C 3846.64,1147.76 3834.81,1129.43 3822.5,1111.5 Z M 3809.5,1126.5 C 3856.09,1197.98 3898.93,1271.98 3938,1348.5C 3957.55,1385.77 3976.72,1423.27 3995.5,1461C 3903.6,1439.02 3810.94,1420.35 3717.5,1405C 3752.66,1313.68 3783.33,1220.85 3809.5,1126.5 Z M 692.5,1138.5 C 719.462,1228.05 749.462,1316.72 782.5,1404.5C 726.719,1414.29 671.052,1424.79 615.5,1436C 582.803,1442.8 550.303,1450.3 518,1458.5C 530.124,1431.25 543.124,1404.25 557,1377.5C 599.141,1295.86 644.308,1216.19 692.5,1138.5 Z M 4049.5,1194.5 C 4111.58,1299.99 4163.41,1410.33 4205,1525.5C 4144.93,1502.92 4083.76,1483.76 4021.5,1468C 4019.74,1466.99 4018.57,1465.49 4018,1463.5C 4033.14,1374.39 4043.64,1284.72 4049.5,1194.5 Z M 456.5,1205.5 C 457.8,1207.22 458.467,1209.39 458.5,1212C 464.558,1296.8 474.225,1381.13 487.5,1465C 457.178,1473.5 426.845,1482.17 396.5,1491C 370.71,1498.71 345.21,1507.21 320,1516.5C 319.193,1507.45 319.526,1498.45 321,1489.5C 359.488,1391.53 404.655,1296.86 456.5,1205.5 Z M 2072.5,1330.5 C 2127.17,1330.33 2181.83,1330.5 2236.5,1331C 2237.29,1332.09 2237.96,1333.25 2238.5,1334.5C 2154.83,1472.51 2072.16,1611.17 1990.5,1750.5C 1984.86,1751.66 1979.2,1751.83 1973.5,1751C 1893.91,1613.83 1814.58,1476.5 1735.5,1339C 1847.97,1335.03 1960.3,1332.2 2072.5,1330.5 Z M 2263.5,1330.5 C 2430.57,1329.88 2597.57,1332.88 2764.5,1339.5C 2685.29,1476.75 2605.96,1613.92 2526.5,1751C 2521.17,1751.67 2515.83,1751.67 2510.5,1751C 2428.49,1611.51 2345.49,1472.68 2261.5,1334.5C 2262.18,1333.14 2262.85,1331.81 2263.5,1330.5 Z M 1682.5,1340.5 C 1686.85,1340.33 1691.18,1340.5 1695.5,1341C 1610.53,1477.09 1527.7,1614.59 1447,1753.5C 1377.89,1626.29 1310.06,1498.29 1243.5,1369.5C 1312.7,1362.63 1382.03,1357.13 1451.5,1353C 1528.63,1348.35 1605.63,1344.19 1682.5,1340.5 Z M 2804.5,1341.5 C 2932.15,1345.55 3059.81,1352.72 3187.5,1363C 3210.57,1364.56 3233.57,1366.73 3256.5,1369.5C 3189.94,1498.29 3122.11,1626.29 3053,1753.5C 2972.69,1614.42 2889.86,1477.09 2804.5,1341.5 Z M 1715.5,1344.5 C 1794.9,1479.61 1873.56,1615.28 1951.5,1751.5C 1788.79,1754.05 1626.12,1757.88 1463.5,1763C 1545.37,1622.06 1629.37,1482.56 1715.5,1344.5 Z M 2783.5,1344.5 C 2870.45,1482.19 2954.78,1621.69 3036.5,1763C 2873.88,1757.88 2711.21,1754.05 2548.5,1751.5C 2627.1,1615.97 2705.43,1480.3 2783.5,1344.5 Z M 2249.5,1353.5 C 2266.8,1380.99 2283.97,1408.66 2301,1436.5C 2363.88,1541.09 2426.38,1645.92 2488.5,1751C 2329.83,1750.5 2171.16,1750.34 2012.5,1750.5C 2090.76,1617.64 2169.76,1485.31 2249.5,1353.5 Z M 1221.5,1370.5 C 1290.03,1502.51 1360.03,1633.67 1431.5,1764C 1280.73,1770.62 1130.06,1778.95 979.5,1789C 1056.52,1647.1 1137.18,1507.6 1221.5,1370.5 Z M 3277.5,1370.5 C 3362.64,1507.23 3443.64,1646.73 3520.5,1789C 3372.31,1778.82 3223.98,1770.82 3075.5,1765C 3073.42,1764.81 3071.42,1764.31 3069.5,1763.5C 3140.64,1633.55 3209.98,1502.55 3277.5,1370.5 Z M 1195.5,1372.5 C 1197.03,1372.52 1197.53,1373.18 1197,1374.5C 1114.88,1507.72 1036.54,1643.38 962,1781.5C 907.929,1663.95 857.762,1544.78 811.5,1424C 812.274,1421.56 813.94,1420.23 816.5,1420C 942.515,1400.46 1068.85,1384.62 1195.5,1372.5 Z M 3303.5,1373.5 C 3431.34,1384.73 3558.68,1400.23 3685.5,1420C 3688.64,1422.42 3689.14,1425.25 3687,1428.5C 3640.92,1547.67 3591.25,1665.33 3538,1781.5C 3463.1,1643.32 3384.93,1507.32 3303.5,1373.5 Z M 785.5,1424.5 C 786.873,1424.34 788.207,1424.51 789.5,1425C 715.513,1553.46 646.013,1684.63 581,1818.5C 551.14,1707.73 526.973,1595.73 508.5,1482.5C 543.469,1472.8 578.802,1464.3 614.5,1457C 671.472,1445.29 728.472,1434.45 785.5,1424.5 Z M 3711.5,1424.5 C 3807,1439.5 3901.67,1458.67 3995.5,1482C 3974.84,1592.83 3947.67,1701.99 3914,1809.5C 3850.58,1678.65 3783.08,1550.32 3711.5,1424.5 Z M 797.5,1447.5 C 825.282,1516.32 853.782,1584.98 883,1653.5C 903.156,1699.98 923.99,1746.15 945.5,1792C 829.954,1801.15 714.621,1812.15 599.5,1825C 661.544,1696.73 727.544,1570.9 797.5,1447.5 Z M 3900.5,1825.5 C 3785.74,1812.06 3670.74,1801.06 3555.5,1792.5C 3607.15,1678.72 3655.98,1563.72 3702,1447.5C 3772.89,1570.68 3839.06,1696.68 3900.5,1825.5 Z M 479.5,1488.5 C 480.239,1488.37 480.906,1488.54 481.5,1489C 428.534,1602.9 377.701,1717.73 329,1833.5C 318.26,1735.39 315.093,1637.06 319.5,1538.5C 372.249,1519.58 425.582,1502.91 479.5,1488.5 Z M 4031.5,1492.5 C 4090.63,1506.82 4148.8,1525.15 4206,1547.5C 4209.61,1643.59 4203.28,1738.92 4187,1833.5C 4138.95,1718.07 4087.12,1604.41 4031.5,1492.5 Z M 4011.5,1494.5 C 4072.65,1617.3 4129.31,1742.13 4181.5,1869C 4097.47,1853.77 4013.14,1840.27 3928.5,1828.5C 3962.75,1718.81 3990.42,1607.48 4011.5,1494.5 Z M 493.5,1507.5 C 512.037,1615.84 535.704,1723.17 564.5,1829.5C 487.91,1840.38 411.577,1852.54 335.5,1866C 386.387,1745.73 439.053,1626.23 493.5,1507.5 Z M 298.5,1548.5 C 296.494,1655 301.494,1761.33 313.5,1867.5C 313.291,1868.99 312.624,1870.16 311.5,1871C 277.367,1878.09 243.367,1885.43 209.5,1893C 230.009,1775.8 259.676,1660.96 298.5,1548.5 Z M 4225.5,1583.5 C 4260.1,1685.56 4286.1,1789.9 4303.5,1896.5C 4270.17,1888.83 4236.84,1881.17 4203.5,1873.5C 4201.61,1870.04 4201.11,1866.37 4202,1862.5C 4218.49,1770.23 4226.33,1677.23 4225.5,1583.5 Z M 2211.5,1768.5 C 2301.5,1769.07 2391.5,1769.57 2481.5,1770C 2487.5,1770.33 2493.5,1770.67 2499.5,1771C 2502.29,1775.42 2504.96,1779.92 2507.5,1784.5C 2421.87,1933.3 2336.03,2081.96 2250,2230.5C 2164.42,2081.67 2078.59,1933 1992.5,1784.5C 1995.04,1779.92 1997.71,1775.42 2000.5,1771C 2070.99,1769.89 2141.32,1769.06 2211.5,1768.5 Z M 1925.5,1770.5 C 1937.84,1770.33 1950.17,1770.5 1962.5,1771C 1965.29,1775.42 1967.96,1779.92 1970.5,1784.5C 1883.4,1932.35 1797.57,2081.02 1713,2230.5C 1628.31,2082.47 1545.15,1933.47 1463.5,1783.5C 1465.08,1782.7 1466.74,1782.2 1468.5,1782C 1620.96,1776.71 1773.29,1772.88 1925.5,1770.5 Z M 2537.5,1770.5 C 2701.55,1772.34 2865.55,1776.18 3029.5,1782C 3031.9,1782.19 3034.23,1782.69 3036.5,1783.5C 2955.02,1933.14 2872.02,2081.8 2787.5,2229.5C 2702.15,2080.63 2616.15,1932.13 2529.5,1784C 2532.3,1779.55 2534.97,1775.05 2537.5,1770.5 Z M 1415.5,1783.5 C 1420.21,1783.17 1424.88,1783.51 1429.5,1784.5C 1344.73,1930.84 1262.56,2078.84 1183,2228.5C 1109.65,2090.63 1040.15,1950.8 974.5,1809C 1121.51,1798.06 1268.51,1789.56 1415.5,1783.5 Z M 3070.5,1784.5 C 3222.17,1789.18 3373.83,1797.34 3525.5,1809C 3459.76,1950.64 3390.43,2090.47 3317.5,2228.5C 3237.67,2078.83 3155.34,1930.83 3070.5,1784.5 Z M 1445.5,1793.5 C 1447.07,1793.94 1448.24,1794.94 1449,1796.5C 1530.11,1945.22 1612.61,2093.05 1696.5,2240C 1530.5,2240.67 1364.5,2240.67 1198.5,2240C 1278.7,2089.74 1361.03,1940.91 1445.5,1793.5 Z M 3052.5,1793.5 C 3055.35,1795.47 3057.51,1798.14 3059,1801.5C 3142.24,1946.14 3223.08,2092.31 3301.5,2240C 3135.83,2240.83 2970.17,2240.67 2804.5,2239.5C 2888.71,2091.75 2971.38,1943.08 3052.5,1793.5 Z M 1980.5,1803.5 C 1983.89,1807.93 1987.06,1812.59 1990,1817.5C 2070.91,1958.33 2152.08,2099 2233.5,2239.5C 2065.5,2240.83 1897.5,2240.83 1729.5,2239.5C 1812.68,2093.79 1896.35,1948.45 1980.5,1803.5 Z M 2518.5,1803.5 C 2603.48,1948.12 2687.48,2093.45 2770.5,2239.5C 2602.5,2240.67 2434.5,2240.83 2266.5,2240C 2350.39,2094.39 2434.39,1948.89 2518.5,1803.5 Z M 944.5,1810.5 C 945.239,1810.37 945.906,1810.54 946.5,1811C 871.858,1950.12 801.858,2091.62 736.5,2235.5C 681.956,2118.72 635.456,1998.72 597,1875.5C 593.978,1865.94 591.478,1856.27 589.5,1846.5C 707.708,1831.91 826.041,1819.91 944.5,1810.5 Z M 3553.5,1811.5 C 3669.54,1819.54 3785.54,1830.7 3901.5,1845C 3902.31,1845.31 3902.97,1845.81 3903.5,1846.5C 3862.25,1975.76 3814.42,2102.43 3760,2226.5C 3695.91,2085.66 3627.08,1947.33 3553.5,1811.5 Z M 959.5,1825.5 C 1025.8,1964.77 1094.8,2102.77 1166.5,2239.5C 1029.5,2240.83 892.5,2240.83 755.5,2239.5C 819.256,2099.32 887.256,1961.32 959.5,1825.5 Z M 3539.5,1825.5 C 3612.58,1961 3680.92,2099 3744.5,2239.5C 3607.5,2240.83 3470.5,2240.83 3333.5,2239.5C 3405.89,2103.39 3474.55,1965.39 3539.5,1825.5 Z M 561.5,1849.5 C 563.288,1849.21 564.955,1849.55 566.5,1850.5C 508.872,1972.09 457.038,2096.09 411,2222.5C 374.297,2113.03 348.964,2001.03 335,1886.5C 410.252,1872.04 485.752,1859.71 561.5,1849.5 Z M 3933.5,1849.5 C 4015.23,1859.65 4096.56,1872.32 4177.5,1887.5C 4155.71,2000.38 4125.87,2111.04 4088,2219.5C 4041.86,2093.91 3990.36,1970.58 3933.5,1849.5 Z M 3917.5,1862.5 C 3976.48,1985.58 4029.14,2111.41 4075.5,2240C 3975.17,2240.67 3874.83,2240.67 3774.5,2240C 3828.99,2116.84 3876.66,1991 3917.5,1862.5 Z M 575.5,1874.5 C 615.36,1999.08 662.693,2120.92 717.5,2240C 619.833,2240.67 522.167,2240.67 424.5,2240C 469.858,2116.09 520.191,1994.25 575.5,1874.5 Z M 299.5,1892.5 C 300.978,1892.24 302.311,1892.57 303.5,1893.5C 261.084,1995.24 224.917,2099.24 195,2205.5C 189.808,2184.38 185.975,2163.04 183.5,2141.5C 186.779,2065.88 194.446,1990.71 206.5,1916C 207.682,1914.26 209.349,1913.26 211.5,1913C 240.918,1905.95 270.251,1899.12 299.5,1892.5 Z M 4212.5,1895.5 C 4244.35,1902.05 4276.02,1909.38 4307.5,1917.5C 4316.38,1976.23 4322.88,2035.23 4327,2094.5C 4326.83,2126.68 4324.17,2158.68 4319,2190.5C 4286.75,2090.9 4251.25,1992.56 4212.5,1895.5 Z M 4194.5,1903.5 C 4238.08,2010.71 4277.25,2119.71 4312,2230.5C 4312.74,2233.56 4312.57,2236.56 4311.5,2239.5C 4241.5,2240.83 4171.5,2240.83 4101.5,2239.5C 4139.83,2129.51 4170.83,2017.51 4194.5,1903.5 Z M 317.5,1908.5 C 331.664,2003.17 352.497,2096.51 380,2188.5C 385.243,2205.9 391.076,2223.06 397.5,2240C 333.501,2240.5 269.501,2240.67 205.5,2240.5C 235.467,2127.27 272.8,2016.6 317.5,1908.5 Z M 207.5,2258.5 C 270.833,2258.5 334.167,2258.5 397.5,2258.5C 360.86,2364.06 329.027,2471.06 302,2579.5C 264.442,2474.27 232.942,2367.27 207.5,2258.5 Z M 423.5,2259.5 C 523.999,2258.5 624.665,2258.17 725.5,2258.5C 672.457,2380.59 623.291,2504.26 578,2629.5C 521.204,2508.26 469.704,2384.92 423.5,2259.5 Z M 746.5,2259.5 C 886.666,2258.33 1027,2258.17 1167.5,2259C 1095.12,2396.27 1025.78,2535.1 959.5,2675.5C 883.781,2539.4 812.781,2400.73 746.5,2259.5 Z M 1198.5,2258.5 C 1364.5,2258.17 1530.5,2258.5 1696.5,2259.5C 1613.9,2404.36 1532.57,2550.03 1452.5,2696.5C 1448.5,2697.83 1444.5,2697.83 1440.5,2696.5C 1356.97,2552.25 1276.3,2406.25 1198.5,2258.5 Z M 1728.5,2259.5 C 1896.67,2258.17 2065,2258.17 2233.5,2259.5C 2149.59,2405 2065.42,2550.33 1981,2695.5C 1896.05,2550.59 1811.88,2405.26 1728.5,2259.5 Z M 2266.5,2259.5 C 2434.67,2258.33 2603,2258.17 2771.5,2259C 2687.96,2405.24 2603.8,2551.08 2519,2696.5C 2435.31,2550.44 2351.15,2404.78 2266.5,2259.5 Z M 2803.5,2259.5 C 2969.33,2258.17 3135.33,2258.17 3301.5,2259.5C 3223.5,2407.02 3142.83,2552.86 3059.5,2697C 3055.46,2697.83 3051.46,2697.66 3047.5,2696.5C 2967.41,2549.96 2886.07,2404.3 2803.5,2259.5 Z M 3333.5,2258.5 C 3470.83,2258.17 3608.17,2258.5 3745.5,2259.5C 3681.51,2400.48 3613.01,2539.15 3540,2675.5C 3474.34,2534.84 3405.5,2395.84 3333.5,2258.5 Z M 3773.5,2259.5 C 3873.67,2258.5 3974,2258.17 4074.5,2258.5C 4030.04,2385.09 3979.21,2509.09 3922,2630.5C 3877.66,2504.62 3828.16,2380.95 3773.5,2259.5 Z M 4102.5,2258.5 C 4171.17,2258.5 4239.83,2258.5 4308.5,2258.5C 4286.96,2382.33 4253.13,2502.66 4207,2619.5C 4179.15,2497.13 4144.32,2376.79 4102.5,2258.5 Z M 2249.5,2268.5 C 2334.06,2413.94 2418.39,2559.61 2502.5,2705.5C 2334.17,2706.67 2165.83,2706.83 1997.5,2706C 2081.65,2560.19 2165.65,2414.36 2249.5,2268.5 Z M 1712.5,2269.5 C 1795.84,2415.01 1879.84,2560.18 1964.5,2705C 1800.8,2704.86 1637.14,2702.53 1473.5,2698C 1552.04,2554.41 1631.7,2411.58 1712.5,2269.5 Z M 2786.5,2269.5 C 2787.46,2269.95 2788.29,2270.62 2789,2271.5C 2868.93,2413.02 2948.09,2555.02 3026.5,2697.5C 3019.52,2698.33 3012.52,2698.83 3005.5,2699C 2848.85,2702.73 2692.19,2704.73 2535.5,2705C 2620.83,2560.84 2704.5,2415.67 2786.5,2269.5 Z M 1182.5,2270.5 C 1259.1,2413.73 1337.76,2555.73 1418.5,2696.5C 1340.88,2695.19 1263.22,2693.02 1185.5,2690C 1116.78,2687.78 1048.11,2684.61 979.5,2680.5C 1044,2542.18 1111.66,2405.51 1182.5,2270.5 Z M 3316.5,2271.5 C 3317.38,2271.37 3318.04,2271.7 3318.5,2272.5C 3389.03,2406.9 3456.36,2542.9 3520.5,2680.5C 3451.89,2684.61 3383.22,2687.78 3314.5,2690C 3236.78,2693.02 3159.12,2695.19 3081.5,2696.5C 3162.65,2556.55 3240.98,2414.88 3316.5,2271.5 Z M 3759.5,2274.5 C 3812.96,2393.37 3861.46,2514.37 3905,2637.5C 3907.31,2643.41 3908.98,2649.41 3910,2655.5C 3908.93,2656.19 3907.77,2656.69 3906.5,2657C 3790.94,2666.37 3675.27,2673.7 3559.5,2679C 3630.83,2546.5 3697.5,2411.67 3759.5,2274.5 Z M 4324.5,2274.5 C 4327.98,2281.88 4330.31,2289.71 4331.5,2298C 4328,2403.63 4317,2508.46 4298.5,2612.5C 4274.55,2616.28 4250.55,2619.45 4226.5,2622C 4270.76,2509.48 4303.42,2393.64 4324.5,2274.5 Z M 410.5,2278.5 C 457.681,2405.68 510.348,2530.68 568.5,2653.5C 485.615,2648.18 402.948,2640.01 320.5,2629C 317.009,2622.54 315.176,2615.71 315,2608.5C 341.244,2496.86 373.077,2386.86 410.5,2278.5 Z M 4087.5,2278.5 C 4128.89,2392.69 4162.56,2509.36 4188.5,2628.5C 4103.04,2639.25 4017.37,2647.75 3931.5,2654C 3990.27,2531.62 4042.27,2406.46 4087.5,2278.5 Z M 735.5,2283.5 C 738.027,2285.51 739.861,2288.18 741,2291.5C 803.147,2422.97 869.314,2552.13 939.5,2679C 824.07,2673.62 708.736,2666.28 593.5,2657C 591.479,2656.6 590.145,2655.43 589.5,2653.5C 633.667,2528.32 682.334,2404.99 735.5,2283.5 Z M 193.5,2287.5 C 221.688,2398.07 255.355,2507.07 294.5,2614.5C 293.605,2617.81 292.771,2621.14 292,2624.5C 267.861,2622.29 243.695,2619.12 219.5,2615C 217.598,2614.8 216.098,2613.97 215,2612.5C 197.511,2518.26 187.177,2423.26 184,2327.5C 186.862,2314.05 190.028,2300.72 193.5,2287.5 Z M 4293.5,2632.5 C 4281.33,2700.17 4265.17,2767.17 4245,2833.5C 4236.54,2772.52 4226.54,2711.85 4215,2651.5C 4215.77,2648.49 4217.27,2645.99 4219.5,2644C 4244.4,2640.75 4269.07,2636.92 4293.5,2632.5 Z M 219.5,2635.5 C 242.142,2638.69 264.808,2641.69 287.5,2644.5C 276.773,2696.63 267.273,2748.97 259,2801.5C 243.477,2746.72 230.311,2691.38 219.5,2635.5 Z M 4189.5,2647.5 C 4190.82,2647.33 4191.99,2647.66 4193,2648.5C 4193.67,2650.83 4193.67,2653.17 4193,2655.5C 4145.33,2774.18 4091.16,2889.85 4030.5,3002.5C 4004.68,2892.2 3973.68,2783.37 3937.5,2676C 3937.91,2675.05 3938.57,2674.39 3939.5,2674C 4023.21,2667.33 4106.54,2658.5 4189.5,2647.5 Z M 306.5,2648.5 C 353.363,2770.54 406.363,2890.04 465.5,3007C 414.122,2993.99 363.455,2978.32 313.5,2960C 311.333,2959.17 309.833,2957.67 309,2955.5C 295.737,2919.55 283.571,2883.21 272.5,2846.5C 280.815,2779.94 292.149,2713.94 306.5,2648.5 Z M 328.5,2650.5 C 406.756,2659.59 485.089,2667.76 563.5,2675C 529.077,2775.77 499.41,2877.94 474.5,2981.5C 419.618,2873.84 370.952,2763.5 328.5,2650.5 Z M 601.5,2677.5 C 716.063,2686.24 830.729,2693.41 945.5,2699C 946.624,2699.25 947.624,2699.75 948.5,2700.5C 894.916,2816.43 844.749,2933.77 798,3052.5C 727.856,2930.22 662.356,2805.22 601.5,2677.5 Z M 3890.5,2677.5 C 3893.52,2677.34 3896.52,2677.5 3899.5,2678C 3838.16,2805.54 3772.32,2930.37 3702,3052.5C 3655.41,2933.66 3605.25,2816.33 3551.5,2700.5C 3552.38,2699.75 3553.38,2699.25 3554.5,2699C 3666.78,2693.73 3778.78,2686.57 3890.5,2677.5 Z M 580.5,2680.5 C 645.665,2814.68 715.332,2946.18 789.5,3075C 688.625,3059.66 588.791,3039.16 490,3013.5C 487.755,3010.12 487.088,3006.45 488,3002.5C 513.553,2893.62 544.386,2786.28 580.5,2680.5 Z M 3918.5,2681.5 C 3919.5,2681.47 3920.16,2681.97 3920.5,2683C 3957.21,2790.97 3988.55,2900.47 4014.5,3011.5C 3914.35,3038.23 3813.01,3059.4 3710.5,3075C 3785.1,2946.99 3854.43,2815.82 3918.5,2681.5 Z M 4199.5,2688.5 C 4200.65,2688.79 4201.32,2689.62 4201.5,2691C 4213.58,2753.09 4222.92,2815.59 4229.5,2878.5C 4222.78,2902.83 4214.95,2926.83 4206,2950.5C 4204.99,2952.26 4203.49,2953.43 4201.5,2954C 4153.32,2971.84 4104.49,2987.67 4055,3001.5C 4054.5,3001.17 4054,3000.83 4053.5,3000.5C 4107.61,2898.95 4156.28,2794.95 4199.5,2688.5 Z M 972.5,2701.5 C 974.81,2700.84 977.31,2700.5 980,2700.5C 1124.77,2707.32 1269.61,2712.49 1414.5,2716C 1419.86,2716.17 1425.2,2716.67 1430.5,2717.5C 1432.56,2720.45 1434.22,2723.61 1435.5,2727C 1363.19,2860.44 1292.03,2994.6 1222,3129.5C 1184.91,3069.66 1148.58,3009.33 1113,2948.5C 1065.63,2866.43 1018.8,2784.1 972.5,2701.5 Z M 3512.5,2700.5 C 3517.18,2700.33 3521.85,2700.5 3526.5,2701C 3447.58,2846.37 3364.75,2989.2 3278,3129.5C 3208.48,2994.29 3137.31,2860.12 3064.5,2727C 3066.29,2723.93 3067.95,2720.76 3069.5,2717.5C 3152.14,2714.37 3234.81,2711.54 3317.5,2709C 3382.69,2706.84 3447.69,2704.01 3512.5,2700.5 Z M 1462.5,2717.5 C 1629.82,2720.8 1797.15,2723.3 1964.5,2725C 1881.54,2868.42 1798.71,3011.92 1716,3155.5C 1627.15,3014.44 1541.31,2871.44 1458.5,2726.5C 1459.58,2723.34 1460.92,2720.34 1462.5,2717.5 Z M 3000.5,2717.5 C 3012.84,2717.33 3025.17,2717.5 3037.5,2718C 3039.17,2721 3040.83,2724 3042.5,2727C 2958.72,2871.41 2872.55,3014.24 2784,3155.5C 2701.29,3011.92 2618.46,2868.42 2535.5,2725C 2690.68,2723.64 2845.68,2721.14 3000.5,2717.5 Z M 3537.5,2718.5 C 3591.92,2835.68 3642.25,2954.68 3688.5,3075.5C 3688,3076.5 3687.5,3077.5 3687,3078.5C 3576.71,3096.72 3465.88,3111.22 3354.5,3122C 3337.19,3124 3319.86,3125.33 3302.5,3126C 3385.03,2992.81 3463.36,2856.97 3537.5,2718.5 Z M 960.5,2720.5 C 962.433,2721.64 963.933,2723.31 965,2725.5C 1039.34,2861.05 1116.84,2994.55 1197.5,3126C 1087.47,3116.77 977.802,3104.11 868.5,3088C 849.834,3085.48 831.334,3082.31 813,3078.5C 812.5,3077.5 812,3076.5 811.5,3075.5C 857.86,2955.75 907.526,2837.41 960.5,2720.5 Z M 1998.5,2724.5 C 2166.5,2725.67 2334.5,2725.83 2502.5,2725C 2419.47,2866.25 2335.3,3006.75 2250,3146.5C 2164.89,3006.6 2081.05,2865.94 1998.5,2724.5 Z M 1980.5,2734.5 C 2019.53,2798.74 2058.03,2863.4 2096,2928.5C 2143.08,3007 2190.42,3085.33 2238,3163.5C 2238.54,3165.57 2238.04,3167.4 2236.5,3169C 2071.45,3169.76 1906.45,3167.09 1741.5,3161C 1739.42,3160.81 1737.42,3160.31 1735.5,3159.5C 1817.44,3017.94 1899.11,2876.28 1980.5,2734.5 Z M 2518.5,2734.5 C 2600.73,2875.94 2682.73,3017.61 2764.5,3159.5C 2763.62,3160.25 2762.62,3160.75 2761.5,3161C 2595.55,3167.27 2429.55,3169.77 2263.5,3168.5C 2261.25,3165.87 2261.42,3163.21 2264,3160.5C 2350.1,3019.3 2434.94,2877.3 2518.5,2734.5 Z M 1446.5,2746.5 C 1527.59,2885.18 1610.59,3022.68 1695.5,3159C 1544.6,3153.57 1393.93,3144.07 1243.5,3130.5C 1310.17,3001.81 1377.84,2873.81 1446.5,2746.5 Z M 3052.5,2746.5 C 3121.95,2873.89 3190.28,3002.06 3257.5,3131C 3106.72,3144.19 2955.72,3153.53 2804.5,3159C 2889.78,3023.19 2972.45,2885.69 3052.5,2746.5 Z M 4193.5,2978.5 C 4194.24,2978.37 4194.91,2978.54 4195.5,2979C 4160.41,3069.68 4119.24,3157.52 4072,3242.5C 4063.03,3171.65 4051.36,3101.32 4037,3031.5C 4037.71,3029.92 4038.54,3028.42 4039.5,3027C 4091.67,3013.11 4143.01,2996.94 4193.5,2978.5 Z M 320.5,2984.5 C 367.957,3000.7 415.957,3015.03 464.5,3027.5C 450.635,3092.36 439.468,3157.69 431,3223.5C 388.732,3146.3 351.899,3066.63 320.5,2984.5 Z M 4012.5,3033.5 C 4013.04,3033.56 4013.38,3033.89 4013.5,3034.5C 3950.26,3148.69 3881.76,3259.35 3808,3366.5C 3781.82,3274.62 3751.65,3184.12 3717.5,3095C 3798.98,3081.44 3879.98,3065.44 3960.5,3047C 3978.12,3043.1 3995.45,3038.6 4012.5,3033.5 Z M 480.5,3037.5 C 542.672,3156.88 610.172,3272.88 683,3385.5C 683.688,3386.33 683.521,3387 682.5,3387.5C 614.255,3365.31 547.255,3339.98 481.5,3311.5C 469.069,3291.89 457.236,3271.89 446,3251.5C 453.064,3179.45 464.564,3108.12 480.5,3037.5 Z M 503.5,3038.5 C 595.818,3060.6 688.818,3079.43 782.5,3095C 749.134,3183.76 718.967,3273.6 692,3364.5C 623.839,3259.21 561.005,3150.55 503.5,3038.5 Z M 4022.5,3056.5 C 4023.12,3056.61 4023.62,3056.94 4024,3057.5C 4039.23,3128.19 4049.89,3199.53 4056,3271.5C 4049.54,3282.92 4042.71,3294.08 4035.5,3305C 3964.09,3337.02 3891.09,3364.69 3816.5,3388C 3890.57,3281.05 3959.23,3170.55 4022.5,3056.5 Z M 802.5,3098.5 C 877.64,3228.14 957.307,3354.8 1041.5,3478.5C 930.668,3457.96 821.335,3430.79 713.5,3397C 711.5,3394.33 709.5,3391.67 707.5,3389C 735.466,3290.94 767.132,3194.1 802.5,3098.5 Z M 3696.5,3099.5 C 3733.82,3194.62 3765.65,3291.62 3792,3390.5C 3789.81,3393.68 3787.31,3396.51 3784.5,3399C 3676.97,3432.13 3567.97,3459.13 3457.5,3480C 3542.06,3356.42 3621.72,3229.59 3696.5,3099.5 Z M 826.5,3102.5 C 954.088,3120.8 1082.25,3136.13 1211,3148.5C 1158,3253.16 1106,3358.5 1055,3464.5C 975.018,3346.33 898.851,3225.66 826.5,3102.5 Z M 3671.5,3101.5 C 3672.24,3101.37 3672.91,3101.54 3673.5,3102C 3601.71,3225.79 3525.54,3346.62 3445,3464.5C 3394,3358.5 3342,3253.16 3289,3148.5C 3389.32,3138.76 3489.48,3127.26 3589.5,3114C 3617.05,3110.33 3644.39,3106.16 3671.5,3101.5 Z M 1234.5,3150.5 C 1390.06,3162.97 1546.06,3172.47 1702.5,3179C 1633,3299.17 1563.5,3419.33 1494,3539.5C 1403.01,3412.86 1316.51,3283.2 1234.5,3150.5 Z M 3263.5,3149.5 C 3264.38,3149.37 3265.04,3149.7 3265.5,3150.5C 3183.47,3283.26 3096.97,3412.93 3006,3539.5C 2936.63,3419.25 2867.13,3299.08 2797.5,3179C 2886.21,3175.1 2974.87,3170.44 3063.5,3165C 3130.4,3160.91 3197.07,3155.75 3263.5,3149.5 Z M 1223.5,3169.5 C 1303.55,3297.1 1387.21,3422.26 1474.5,3545C 1338.34,3531.36 1203.18,3511.19 1069,3484.5C 1068.33,3483.5 1068.33,3482.5 1069,3481.5C 1119.19,3376.79 1170.69,3272.79 1223.5,3169.5 Z M 3275.5,3169.5 C 3329.65,3272.14 3381.49,3376.14 3431,3481.5C 3431.67,3482.83 3431.67,3484.17 3431,3485.5C 3296.82,3511.95 3161.65,3531.79 3025.5,3545C 3113.4,3422.92 3196.73,3297.76 3275.5,3169.5 Z M 1731.5,3180.5 C 1733.3,3179.84 1735.3,3179.5 1737.5,3179.5C 1899.78,3185.24 2062.11,3188.41 2224.5,3189C 2147.25,3315.57 2068.42,3441.07 1988,3565.5C 1899.5,3439.17 1814,3310.83 1731.5,3180.5 Z M 2757.5,3179.5 C 2761.23,3179.18 2764.89,3179.51 2768.5,3180.5C 2685.94,3311.2 2600.44,3439.87 2512,3566.5C 2432.04,3441.42 2353.21,3315.59 2275.5,3189C 2360.5,3188.25 2445.5,3187.25 2530.5,3186C 2606.35,3184.78 2682.02,3182.61 2757.5,3179.5 Z M 2246.5,3188.5 C 2249.97,3187.96 2252.81,3188.96 2255,3191.5C 2334.08,3322.01 2414.91,3451.34 2497.5,3579.5C 2459.2,3581.59 2420.87,3582.75 2382.5,3583C 2294.5,3583.67 2206.5,3583.67 2118.5,3583C 2079.82,3582.57 2041.15,3581.57 2002.5,3580C 2085.48,3450.54 2166.82,3320.04 2246.5,3188.5 Z M 1715.5,3193.5 C 1717.62,3194.03 1719.12,3195.36 1720,3197.5C 1801.19,3326.56 1885.35,3453.56 1972.5,3578.5C 1818.15,3574.75 1664.15,3564.92 1510.5,3549C 1579.09,3430.59 1647.42,3312.09 1715.5,3193.5 Z M 2782.5,3193.5 C 2783.5,3193.41 2784.33,3193.75 2785,3194.5C 2853.04,3312.75 2921.21,3430.92 2989.5,3549C 2835.88,3565.14 2681.88,3574.98 2527.5,3578.5C 2615.75,3452.34 2700.75,3324.01 2782.5,3193.5 Z M 4016.5,3333.5 C 4017.24,3333.37 4017.91,3333.54 4018.5,3334C 3968.7,3413.47 3913.87,3489.3 3854,3561.5C 3843.93,3509.83 3832.6,3458.5 3820,3407.5C 3886.79,3385.85 3952.29,3361.19 4016.5,3333.5 Z M 499.5,3342.5 C 499.56,3341.96 499.893,3341.62 500.5,3341.5C 559.197,3366.01 618.864,3388.01 679.5,3407.5C 679.833,3408.17 680.167,3408.83 680.5,3409.5C 668.265,3455.44 657.765,3501.77 649,3548.5C 595.047,3482.73 545.213,3414.06 499.5,3342.5 Z M 3798.5,3413.5 C 3814.04,3469.38 3826.21,3526.05 3835,3583.5C 3763.22,3618.47 3690.06,3650.3 3615.5,3679C 3607.6,3682.3 3599.6,3684.97 3591.5,3687C 3664.56,3598.79 3733.56,3507.63 3798.5,3413.5 Z M 909.5,3700.5 C 843.643,3677.57 778.643,3652.41 714.5,3625C 697.94,3606.94 681.94,3588.44 666.5,3569.5C 675.802,3517.29 687.469,3465.63 701.5,3414.5C 766.603,3512.93 835.936,3608.27 909.5,3700.5 Z M 730.5,3424.5 C 784.018,3439.22 838.018,3453.38 892.5,3467C 941.036,3478.47 989.703,3489.3 1038.5,3499.5C 1005.79,3569.82 973.953,3640.49 943,3711.5C 868.062,3618.75 797.228,3523.08 730.5,3424.5 Z M 3765.5,3423.5 C 3766.55,3423.35 3767.55,3423.52 3768.5,3424C 3701.83,3518.68 3631.33,3610.52 3557,3699.5C 3555.85,3700.74 3554.51,3701.74 3553,3702.5C 3523.6,3634.36 3493.1,3566.69 3461.5,3499.5C 3548.88,3481.66 3635.54,3460.82 3721.5,3437C 3736.43,3432.96 3751.1,3428.46 3765.5,3423.5 Z M 1292.5,3813.5 C 1181.29,3787.61 1071.62,3756.28 963.5,3719.5C 962.417,3718.64 962.251,3717.64 963,3716.5C 993.629,3644.91 1025.63,3573.91 1059,3503.5C 1132.44,3610.11 1210.27,3713.44 1292.5,3813.5 Z M 3440.5,3503.5 C 3472.91,3570.33 3503.74,3638 3533,3706.5C 3533.75,3707.64 3533.58,3708.64 3532.5,3709.5C 3428,3746.9 3322,3778.56 3214.5,3804.5C 3294.5,3707.53 3369.83,3607.19 3440.5,3503.5 Z M 1085.5,3509.5 C 1086.1,3508.86 1086.93,3508.53 1088,3508.5C 1217.77,3532.37 1348.27,3551.2 1479.5,3565C 1430.29,3650.58 1380.96,3736.08 1331.5,3821.5C 1329.1,3822.72 1326.77,3822.56 1324.5,3821C 1240.33,3720.43 1160.66,3616.6 1085.5,3509.5 Z M 3410.5,3508.5 C 3411.87,3508.34 3413.21,3508.51 3414.5,3509C 3341.43,3614.08 3263.77,3715.75 3181.5,3814C 3176.75,3814.85 3172.08,3816.02 3167.5,3817.5C 3166.52,3817.02 3165.69,3816.36 3165,3815.5C 3117.67,3733.5 3070.33,3651.5 3023,3569.5C 3021.99,3567.98 3021.49,3566.31 3021.5,3564.5C 3152.13,3551.6 3281.8,3532.93 3410.5,3508.5 Z M 1515.5,3569.5 C 1600.85,3577.13 1686.52,3583.63 1772.5,3589C 1837.12,3593.01 1901.78,3595.85 1966.5,3597.5C 1903.59,3697.26 1838.42,3795.6 1771,3892.5C 1681.4,3788.1 1596.23,3680.43 1515.5,3569.5 Z M 2982.5,3568.5 C 2983.38,3568.37 2984.04,3568.7 2984.5,3569.5C 2903.71,3680.47 2818.55,3788.14 2729,3892.5C 2662.46,3795.79 2597.29,3698.12 2533.5,3599.5C 2534.03,3598.81 2534.69,3598.31 2535.5,3598C 2685,3593.34 2834,3583.51 2982.5,3568.5 Z M 1495.5,3574.5 C 1575.36,3684.3 1659.69,3790.8 1748.5,3894C 1614.57,3878.96 1481.9,3856.46 1350.5,3826.5C 1398.89,3742.47 1447.22,3658.47 1495.5,3574.5 Z M 3003.5,3574.5 C 3051.64,3656.83 3099.64,3739.33 3147.5,3822C 3017.35,3852.3 2886.01,3875.63 2753.5,3892C 2841.79,3789.83 2925.13,3684 3003.5,3574.5 Z M 2012.5,3599.5 C 2167.33,3603.47 2322.17,3603.47 2477,3599.5C 2480.5,3599.83 2484,3600.17 2487.5,3600.5C 2411.98,3707.53 2332.81,3811.86 2250,3913.5C 2167.17,3811.46 2088,3706.8 2012.5,3599.5 Z M 1988.5,3601.5 C 2065.96,3711.2 2146.96,3818.37 2231.5,3923C 2084.07,3923.01 1937.07,3915.01 1790.5,3899C 1858.12,3800.92 1924.12,3701.76 1988.5,3601.5 Z M 2510.5,3602.5 C 2511.5,3602.41 2512.33,3602.75 2513,3603.5C 2576.34,3702.2 2641.18,3799.86 2707.5,3896.5C 2706.97,3897.19 2706.31,3897.69 2705.5,3898C 2560.63,3914.75 2415.3,3922.91 2269.5,3922.5C 2353.7,3818.65 2434.04,3711.98 2510.5,3602.5 Z M 3801.5,3621.5 C 3755.43,3674.07 3706.43,3723.9 3654.5,3771C 3636.63,3787.21 3618.46,3803.04 3600,3818.5C 3587.72,3786.61 3574.89,3754.94 3561.5,3723.5C 3563.32,3721.18 3565.32,3719.02 3567.5,3717C 3646.77,3688.19 3724.77,3656.36 3801.5,3621.5 Z M 747.5,3661.5 C 787.86,3676.8 828.527,3692.3 869.5,3708C 891.089,3715.81 912.756,3723.31 934.5,3730.5C 924.973,3755.9 915.14,3781.23 905,3806.5C 904.632,3807.91 903.799,3808.91 902.5,3809.5C 848.336,3763.01 796.67,3713.67 747.5,3661.5 Z M 3528.5,3730.5 C 3529.24,3730.37 3529.91,3730.54 3530.5,3731C 3449.67,3825.84 3363.84,3916.34 3273,4002.5C 3242.63,3949.58 3212.13,3896.75 3181.5,3844C 3184.33,3840.5 3187.17,3837 3190,3833.5C 3191.32,3831.51 3193.15,3830.35 3195.5,3830C 3308.27,3802.35 3419.27,3769.19 3528.5,3730.5 Z M 3546.5,3740.5 C 3560.06,3770.63 3572.23,3801.29 3583,3832.5C 3544.65,3864.86 3505.15,3895.69 3464.5,3925C 3414.42,3948.71 3363.76,3970.71 3312.5,3991C 3395.05,3911.3 3473.05,3827.8 3546.5,3740.5 Z M 970.5,3743.5 C 1084.5,3780.22 1199.66,3812.56 1316,3840.5C 1316.47,3841.93 1317.3,3843.1 1318.5,3844C 1287.05,3899.08 1255.21,3953.91 1223,4008.5C 1220.18,4007.34 1217.35,4006.17 1214.5,4005C 1127.51,3922.53 1046.18,3835.37 970.5,3743.5 Z M 1166.5,3985.5 C 1138.84,3974.5 1111.51,3962.67 1084.5,3950C 1027.68,3910.85 972.843,3869.02 920,3824.5C 928.997,3799.19 938.997,3774.19 950,3749.5C 1018.32,3831.34 1090.49,3910 1166.5,3985.5 Z M 3153.5,3839.5 C 3157.7,3838.85 3158.87,3840.18 3157,3843.5C 3074.59,3939.92 2986.59,4031.25 2893,4117.5C 2889.37,4114.2 2886.03,4110.53 2883,4106.5C 2835.4,4042.79 2788.9,3978.29 2743.5,3913C 2881.6,3895.71 3018.27,3871.21 3153.5,3839.5 Z M 1346.5,3846.5 C 1481.9,3875.4 1618.23,3898.23 1755.5,3915C 1707.55,3984.29 1658.05,4052.45 1607,4119.5C 1514.29,4033.64 1427.46,3942.64 1346.5,3846.5 Z M 1331.5,3859.5 C 1408.33,3948.84 1489.66,4034.34 1575.5,4116C 1462,4089.79 1350.66,4056.12 1241.5,4015C 1271.64,3963.22 1301.64,3911.39 1331.5,3859.5 Z M 3167.5,3859.5 C 3169.8,3861.4 3171.63,3863.73 3173,3866.5C 3201.04,3915.42 3229.21,3964.25 3257.5,4013C 3148.67,4054.61 3037.67,4088.94 2924.5,4116C 3011.1,4035.25 3092.1,3949.75 3167.5,3859.5 Z M 2704.5,3916.5 C 2705.55,3916.35 2706.55,3916.52 2707.5,3917C 2633.18,4002.15 2554.52,4083.32 2471.5,4160.5C 2402.35,4090.87 2336.68,4018.37 2274.5,3943C 2384.69,3941.53 2494.69,3936.2 2604.5,3927C 2638.06,3924.21 2671.39,3920.71 2704.5,3916.5 Z M 1794.5,3919.5 C 1795.1,3918.86 1795.93,3918.53 1797,3918.5C 1939.44,3933.33 2082.28,3941.5 2225.5,3943C 2163.33,4018.19 2097.83,4090.69 2029,4160.5C 1946.47,4084.14 1868.3,4003.8 1794.5,3919.5 Z M 1773.5,3923.5 C 1831.41,3989.25 1891.74,4053.08 1954.5,4115C 1974.5,4133.67 1994.5,4152.33 2014.5,4171C 1912.26,4168.67 1810.59,4159.67 1709.5,4144C 1681.35,4139.44 1653.35,4134.1 1625.5,4128C 1676.6,4061.07 1725.93,3992.91 1773.5,3923.5 Z M 2725.5,3923.5 C 2773.8,3992.57 2823.47,4060.74 2874.5,4128C 2779.31,4146.4 2683.31,4158.4 2586.5,4164C 2553.85,4166.33 2521.18,4168 2488.5,4169C 2552.03,4109.8 2613.2,4048.3 2672,3984.5C 2690.44,3964.57 2708.27,3944.24 2725.5,3923.5 Z M 2249.5,3946.5 C 2300.31,4006.83 2352.48,4066.16 2406,4124.5C 2420.47,4139.97 2435.3,4155.14 2450.5,4170C 2426.99,4171.78 2403.32,4172.78 2379.5,4173C 2268.82,4175.19 2158.16,4174.86 2047.5,4172C 2118.38,4099.64 2185.71,4024.48 2249.5,3946.5 Z M 3366.5,3990.5 C 3342.56,4006.48 3317.9,4021.48 3292.5,4035.5C 3290.17,4031.5 3287.83,4027.5 3285.5,4023.5C 3312.39,4012.22 3339.39,4001.22 3366.5,3990.5 Z M 1187.5,4015.5 C 1196.54,4017.27 1204.37,4021.27 1211,4027.5C 1211.67,4028.5 1211.67,4029.5 1211,4030.5C 1202.85,4025.85 1195.01,4020.85 1187.5,4015.5 Z M 3227.5,4071.5 C 3240.94,4059.23 3254.27,4046.73 3267.5,4034C 3268.45,4033.38 3269.28,4033.55 3270,4034.5C 3271.58,4037.99 3273.41,4041.33 3275.5,4044.5C 3260.13,4054.52 3244.13,4063.52 3227.5,4071.5 Z M 1253.5,4040.5 C 1364.3,4079.87 1476.97,4113.03 1591.5,4140C 1578.67,4156.17 1565.83,4172.33 1553,4188.5C 1551.61,4189.55 1550.11,4189.72 1548.5,4189C 1459.63,4156.48 1373.3,4118.15 1289.5,4074C 1277,4063.33 1265,4052.17 1253.5,4040.5 Z M 3226.5,4045.5 C 3204.33,4066.5 3181.66,4087 3158.5,4107C 3091.33,4139.42 3022.66,4168.25 2952.5,4193.5C 2947.84,4188.67 2943.34,4183.67 2939,4178.5C 2928.98,4165.98 2919.14,4153.31 2909.5,4140.5C 3016.67,4113.96 3122.33,4082.29 3226.5,4045.5 Z M 1609.5,4148.5 C 1632.14,4167.18 1654.48,4186.34 1676.5,4206C 1691.54,4218.71 1706.88,4231.05 1722.5,4243C 1671.46,4230.32 1621.13,4214.99 1571.5,4197C 1584.54,4181.08 1597.2,4164.91 1609.5,4148.5 Z M 2888.5,4148.5 C 2891.41,4150.24 2893.91,4152.57 2896,4155.5C 2906.95,4170.12 2918.29,4184.45 2930,4198.5C 2930.48,4199.45 2930.65,4200.45 2930.5,4201.5C 2878.12,4219.34 2825.12,4234.84 2771.5,4248C 2811.87,4216.47 2850.87,4183.3 2888.5,4148.5 Z M 1643.5,4151.5 C 1761.16,4173.37 1879.83,4186.2 1999.5,4190C 1966.51,4222.5 1932.18,4253.33 1896.5,4282.5C 1853.48,4274.91 1810.82,4265.75 1768.5,4255C 1725.48,4222.14 1683.81,4187.64 1643.5,4151.5 Z M 2855.5,4151.5 C 2812.71,4189.56 2768.37,4225.73 2722.5,4260C 2683.92,4269.45 2645.09,4277.62 2606,4284.5C 2568.94,4253.86 2533.11,4221.69 2498.5,4188C 2618.32,4183.62 2737.32,4171.45 2855.5,4151.5 Z M 2465.5,4189.5 C 2467.2,4189.34 2468.87,4189.51 2470.5,4190C 2504.63,4224.14 2539.96,4256.8 2576.5,4288C 2491.17,4302.33 2405.17,4310.33 2318.5,4312C 2369.15,4273.19 2418.15,4232.35 2465.5,4189.5 Z M 2028.5,4190.5 C 2031.65,4190.21 2034.65,4190.71 2037.5,4192C 2083.75,4234.26 2131.75,4274.26 2181.5,4312C 2095.35,4309.02 2009.68,4300.68 1924.5,4287C 1960.57,4256.44 1995.23,4224.27 2028.5,4190.5 Z M 2409.5,4190.5 C 2418.84,4190.33 2428.17,4190.5 2437.5,4191C 2389.7,4234.54 2339.7,4275.21 2287.5,4313C 2275,4313.17 2262.5,4313.33 2250,4313.5C 2236.74,4313.65 2223.58,4313.15 2210.5,4312C 2159.85,4274.15 2110.85,4234.15 2063.5,4192C 2122.66,4192.23 2181.83,4192.73 2241,4193.5C 2297.34,4193.14 2353.51,4192.14 2409.5,4190.5 Z"/></g>
</svg>
