<?xml version="1.0" standalone="no"?>
<!DOCTYPE svg PUBLIC "-//W3C//DTD SVG 20010904//EN"
 "http://www.w3.org/TR/2001/REC-SVG-20010904/DTD/svg10.dtd">
<svg version="1.0" xmlns="http://www.w3.org/2000/svg"
 width="4501.000000pt" height="4501.000000pt" viewBox="0 0 4501.000000 4501.000000"
 preserveAspectRatio="xMidYMid meet">

<g transform="translate(0.000000,4501.000000) scale(0.100000,-0.100000)"
fill="#000000" stroke="none">
<path d="M21945 43533 c-1610 -54 -3061 -258 -4570 -643 -3985 -1016 -7591
-3203 -10367 -6287 -1746 -1939 -3125 -4212 -4039 -6654 -719 -1922 -1152
-3960 -1279 -6014 -48 -784 -52 -1717 -9 -2465 107 -1902 452 -3713 1044
-5485 1307 -3912 3756 -7361 7035 -9905 4085 -3170 9159 -4699 14350 -4324
4187 302 8186 1865 11480 4488 655 522 1150 965 1771 1585 730 730 1304 1388
1911 2191 2453 3245 3910 7149 4172 11185 36 548 41 714 41 1415 0 702 -6 891
-41 1420 -242 3653 -1444 7173 -3491 10227 -592 883 -1262 1732 -2012 2548
-237 258 -918 939 -1176 1176 -1786 1643 -3766 2927 -5970 3872 -1928 826
-3996 1359 -6095 1572 -749 75 -1398 106 -2180 103 -272 -1 -531 -3 -575 -5z
m-32 -346 c-476 -357 -940 -738 -1434 -1176 -161 -143 -135 -150 -390 95 -351
337 -723 672 -967 869 -61 50 -111 93 -111 96 -1 4 113 25 252 47 903 147
1860 235 2830 260 l79 2 -259 -193z m792 87 c357 -253 842 -631 1230 -959 242
-204 459 -394 464 -408 2 -6 -17 -7 -50 -4 -153 18 -1343 29 -2481 25 -681 -3
-1238 -4 -1238 -2 0 6 309 273 521 451 378 316 750 606 1114 867 250 179 232
178 440 30z m590 96 c843 -31 1633 -105 2455 -231 146 -22 269 -41 273 -42 5
-2 -53 -54 -130 -117 -316 -263 -688 -599 -1004 -907 -103 -101 -194 -183
-202 -183 -17 0 -35 15 -303 250 -475 418 -923 781 -1372 1112 l-174 128 94 0
c51 0 215 -5 363 -10z m3273 -375 l223 -44 137 -98 c373 -267 845 -636 1228
-959 309 -260 442 -379 429 -382 -7 -2 -83 10 -171 27 -790 147 -1914 263
-3214 331 -118 7 -216 13 -218 14 -3 4 369 354 538 507 184 167 391 345 589
507 153 125 189 150 210 146 15 -3 126 -24 249 -49z m-7702 -67 c272 -219 582
-492 933 -822 l214 -201 -39 -6 c-21 -4 -120 -9 -219 -13 -587 -22 -1441 -91
-2000 -162 -446 -56 -1036 -151 -1305 -210 l-25 -6 27 24 c470 412 992 834
1443 1165 338 248 273 217 571 278 142 29 262 54 266 54 4 1 64 -45 134 -101z
m8683 -150 c514 -126 1061 -284 1581 -458 162 -54 308 -103 323 -109 l28 -11
-81 -97 c-63 -77 -261 -327 -481 -606 -15 -19 -20 -15 -160 109 -438 391 -960
820 -1359 1119 -80 59 -149 112 -155 117 -13 13 13 8 304 -64z m-9980 -85
c-425 -323 -850 -674 -1287 -1061 -96 -85 -175 -152 -177 -150 -1 1 -79 100
-172 218 -93 118 -215 271 -271 340 l-101 124 77 28 c298 109 866 290 1262
403 203 58 789 212 814 214 4 1 -61 -52 -145 -116z m12185 -593 c231 -91 1153
-646 1686 -1013 294 -203 880 -637 880 -652 0 -2 -44 12 -97 31 -848 310
-1768 590 -2716 829 -224 56 -410 105 -414 108 -9 9 562 727 579 727 4 0 41
-13 82 -30z m-14216 -205 c84 -104 207 -258 272 -342 l120 -152 -38 -10 c-20
-5 -185 -45 -367 -89 -889 -218 -1793 -483 -2605 -767 -150 -52 -275 -94 -277
-92 -12 12 761 704 1028 920 95 76 775 373 1609 700 36 14 74 25 85 24 12 -1
75 -72 173 -192z m8352 -155 c217 -5 450 -12 518 -16 l123 -6 -183 -187 c-492
-502 -1156 -1245 -1727 -1934 -91 -109 -117 -135 -126 -125 -7 7 -81 96 -166
198 -538 648 -1131 1310 -1663 1860 -172 178 -195 205 -174 208 13 2 341 7
728 12 780 9 2060 5 2670 -10z m-3790 -73 c-36 -34 -191 -182 -345 -328 -568
-541 -1219 -1218 -1843 -1916 -90 -101 -166 -183 -170 -183 -4 1 -43 53 -87
117 -276 402 -813 1147 -1173 1627 -123 164 -220 302 -215 306 11 11 462 100
758 149 834 139 1744 229 2745 271 272 11 356 15 380 18 8 1 -14 -26 -50 -61z
m5220 18 c1178 -62 2274 -177 3095 -326 121 -22 236 -44 255 -49 19 -4 47 -11
62 -14 26 -6 22 -13 -187 -290 -350 -466 -842 -1149 -1195 -1658 -41 -59 -78
-108 -81 -108 -3 0 -94 98 -201 218 -697 779 -1522 1624 -2158 2210 l-45 41
85 -5 c47 -2 213 -11 370 -19z m-4824 -267 c475 -482 1001 -1066 1580 -1750
l206 -243 -439 -6 c-1199 -18 -2476 -95 -3637 -220 -153 -16 -280 -28 -282
-26 -9 9 622 703 1001 1102 375 395 1338 1343 1366 1345 3 0 95 -91 205 -202z
m4441 2 c461 -434 1038 -1018 1520 -1540 251 -272 602 -664 598 -668 -2 -2
-131 8 -287 22 -1178 108 -2343 168 -3500 183 -291 3 -528 9 -528 13 0 15 584
696 907 1057 403 451 1055 1137 1074 1131 5 -2 102 -91 216 -198z m6373 32
c247 -114 746 -364 995 -497 187 -100 553 -302 563 -311 4 -3 -158 -284 -163
-284 -2 0 -95 73 -207 163 -389 312 -817 622 -1235 896 -122 80 -230 152 -240
158 -24 16 83 -30 287 -125z m-2155 -447 c675 -633 1439 -1428 2144 -2234 212
-242 224 -256 195 -247 -40 12 -784 159 -1064 211 -891 164 -1919 315 -2750
406 -113 12 -209 26 -214 30 -16 14 941 1347 1394 1941 l75 97 30 -27 c16 -15
102 -95 190 -177z m-12804 -160 c481 -644 1237 -1700 1226 -1712 -3 -2 -36 -8
-74 -13 -1438 -188 -2426 -359 -3657 -631 -330 -73 -410 -88 -417 -77 -5 7 -8
16 -6 20 10 29 790 900 1122 1253 499 531 1524 1532 1545 1509 4 -5 122 -162
261 -349z m-707 204 c-233 -220 -1016 -1010 -1244 -1254 -298 -319 -554 -603
-834 -923 -191 -219 -241 -271 -251 -260 -22 24 -897 1549 -892 1554 10 11
520 191 857 304 718 240 1347 424 2145 626 182 46 336 83 344 84 8 0 -48 -59
-125 -131z m13859 65 c739 -185 1549 -426 2277 -679 319 -110 790 -282 798
-290 5 -5 -881 -1544 -889 -1545 -4 0 -60 62 -125 137 -340 394 -726 820
-1105 1218 -235 247 -883 896 -1112 1113 -65 62 -116 112 -112 112 3 0 124
-30 268 -66z m-16453 -58 c-8 -7 -91 -82 -185 -167 -93 -85 -258 -238 -366
-341 l-197 -187 -61 107 c-34 58 -60 111 -58 117 5 12 307 184 599 340 117 63
224 121 238 129 32 18 49 20 30 2z m20190 -631 c288 -174 541 -335 855 -545
276 -185 626 -429 655 -457 20 -19 -1 -10 -230 97 -400 188 -926 414 -1407
607 -145 58 -263 109 -263 114 0 21 174 309 185 306 6 -3 98 -58 205 -122z
m-21152 -45 c34 -60 62 -113 62 -117 0 -5 -118 -55 -263 -112 -273 -108 -785
-325 -1016 -430 -74 -33 -136 -59 -138 -57 -14 14 1244 824 1282 825 6 1 38
-49 73 -109z m20862 -466 c679 -590 1359 -1271 2014 -2019 279 -318 365 -419
361 -423 -2 -2 -147 44 -322 101 -950 315 -1927 589 -2933 822 -135 31 -246
58 -248 60 -2 2 2 14 9 27 8 16 705 1227 916 1591 7 11 14 5 203 -159z
m-20216 -654 l467 -810 -56 -68 -56 -68 -272 -68 c-611 -154 -1398 -377 -2022
-573 -278 -87 -911 -297 -1023 -339 l-63 -24 21 28 c84 107 1135 1276 1494
1662 415 445 1019 1070 1035 1070 4 0 217 -364 475 -810z m-1020 507 c-470
-478 -1077 -1138 -1828 -1984 -187 -211 -343 -383 -347 -383 -9 0 -332 797
-395 977 -18 51 -18 52 3 70 99 84 469 387 598 489 160 126 161 126 480 284
465 230 872 414 1355 615 124 51 241 100 260 108 19 9 41 16 49 16 8 1 -71
-86 -175 -192z m21836 -10 c558 -236 1099 -486 1640 -758 l355 -179 165 -135
c91 -75 175 -146 187 -158 l21 -22 -40 -105 c-84 -220 -328 -831 -341 -856
-13 -25 -15 -23 -244 243 -565 658 -1173 1296 -1703 1788 -304 282 -319 297
-290 286 14 -5 126 -52 250 -104z m-11227 -520 c-4 -7 -116 -147 -248 -312
-633 -791 -1288 -1660 -1971 -2617 l-212 -297 -303 467 c-337 518 -1270 1919
-1517 2277 l-158 230 35 7 c89 18 954 101 1436 138 763 58 1718 102 2470 113
485 7 476 7 468 -6z m1507 -8 c789 -20 1539 -59 2320 -119 400 -31 954 -82
962 -89 3 -3 -82 -134 -189 -291 -445 -648 -1045 -1551 -1560 -2345 -129 -198
-237 -361 -242 -363 -4 -1 -79 98 -166 220 -649 913 -1397 1908 -2014 2678
-130 162 -242 303 -250 313 -13 19 -5 19 375 13 214 -4 558 -11 764 -17z
m-1062 -401 c338 -421 721 -916 1058 -1363 483 -643 1070 -1452 1061 -1462 -3
-3 -271 1 -594 8 -770 17 -2796 17 -3571 0 -326 -7 -595 -11 -598 -8 -16 15
992 1382 1565 2122 169 218 812 1025 817 1025 1 0 119 -145 262 -322z m4950
132 c1142 -130 2284 -312 3392 -540 190 -39 360 -74 378 -77 18 -3 35 -10 38
-14 4 -7 -1452 -2545 -1476 -2572 -4 -5 -63 67 -131 160 -644 876 -1260 1667
-1888 2423 -198 237 -472 562 -519 613 l-26 27 27 0 c15 0 107 -9 205 -20z
m-10238 -25 c0 -3 -64 -81 -143 -173 -718 -840 -1555 -1902 -2275 -2887 -51
-70 -95 -125 -97 -123 -2 1 -326 561 -719 1243 l-716 1240 92 23 c184 44 700
155 1063 227 806 161 1584 291 2450 409 362 50 345 48 345 41z m452 -305 c493
-722 1014 -1504 1520 -2280 l238 -365 -173 -7 c-94 -4 -343 -14 -552 -23
-1174 -48 -2606 -146 -3614 -245 -107 -11 -196 -18 -198 -16 -4 4 392 541 600
816 632 831 1188 1524 1771 2208 149 174 193 220 202 210 6 -7 99 -141 206
-298z m9653 -28 c483 -569 964 -1166 1456 -1807 282 -367 823 -1095 817 -1099
-2 -2 -64 3 -138 11 -668 66 -1713 146 -2535 193 -620 35 -1630 80 -1798 80
l-68 0 36 56 c334 521 1255 1908 1680 2528 l259 379 35 -39 c18 -22 134 -157
256 -302z m8794 -491 c524 -466 1126 -1065 1622 -1616 80 -88 148 -165 152
-172 4 -6 -55 18 -130 54 -596 283 -1384 612 -2103 876 -113 42 -217 80 -232
86 l-27 10 105 258 c84 207 212 533 293 746 l11 29 62 -54 c34 -29 145 -127
247 -217z m-27344 27 c48 -126 142 -361 345 -860 18 -44 18 -48 2 -67 -11 -13
-126 -62 -312 -131 -622 -233 -1334 -527 -1925 -795 -342 -155 -314 -143 -294
-119 51 63 341 388 498 559 228 248 853 873 1101 1102 223 206 512 463 521
463 3 0 32 -69 64 -152z m22887 -98 c512 -618 1066 -1330 1573 -2020 136 -184
664 -924 662 -926 -1 -1 -36 4 -77 12 -918 175 -2263 372 -3438 504 -239 27
-435 50 -437 52 -4 5 1507 2618 1514 2617 3 0 95 -107 203 -239z m543 74 c550
-135 1215 -319 1757 -484 269 -83 1153 -375 1176 -389 18 -11 -340 -834 -738
-1696 -89 -192 -178 -385 -197 -427 -20 -43 -39 -78 -44 -78 -4 0 -42 51 -85
113 -603 873 -1487 2044 -2159 2857 -89 108 -164 200 -168 206 -7 12 43 0 458
-102z m-18383 -1189 c400 -693 728 -1262 728 -1265 0 -3 -78 -14 -172 -23
-1060 -111 -2562 -326 -3555 -510 -128 -24 -233 -42 -233 -40 0 4 264 376 449
633 547 759 1193 1597 1752 2271 l137 165 64 16 c34 9 72 15 83 15 15 -2 189
-296 747 -1262z m-1214 1126 c-897 -1112 -1401 -1776 -2092 -2758 -98 -139
-181 -253 -185 -253 -4 0 -16 21 -28 48 -11 26 -106 232 -211 457 -295 638
-699 1552 -689 1561 8 9 553 195 857 294 615 199 1280 396 1840 544 157 41
335 89 395 105 140 38 142 38 113 2z m22849 -1048 c561 -685 1114 -1404 1560
-2028 266 -372 507 -725 500 -731 -3 -3 -68 12 -144 35 -776 226 -1857 488
-2855 692 -87 18 -158 35 -158 39 0 4 41 94 91 201 263 560 787 1735 859 1924
5 14 12 25 14 25 2 0 63 -71 133 -157z m380 -17 c450 -171 937 -372 1378 -569
432 -192 915 -422 915 -435 0 -21 -75 -450 -111 -632 -71 -360 -237 -1080
-258 -1117 -4 -9 -57 61 -153 204 -507 754 -1130 1587 -1921 2566 -21 26 -34
47 -29 47 6 0 86 -29 179 -64z m-26514 -181 c177 -411 423 -958 671 -1493 75
-161 137 -298 139 -304 1 -6 -110 -34 -278 -69 -934 -196 -1857 -424 -2617
-648 l-168 -49 137 202 c528 778 1114 1548 1757 2311 198 235 247 288 257 278
4 -4 50 -107 102 -228z m-480 83 c-55 -62 -351 -423 -543 -663 -477 -599 -911
-1191 -1340 -1829 -152 -225 -190 -268 -210 -235 -10 15 -115 438 -175 704
-62 271 -124 588 -189 966 -5 26 2 30 192 120 424 199 1065 479 1512 659 200
81 761 299 769 300 3 0 -5 -10 -16 -22z m15422 -1058 c253 -7 462 -14 464 -15
1 -2 -80 -133 -181 -292 -607 -947 -1372 -2170 -2065 -3303 -198 -323 -199
-325 -235 -328 -35 -3 -37 -1 -81 70 -25 40 -208 339 -408 663 -591 963 -1246
2009 -1793 2864 -114 178 -205 325 -204 326 2 2 255 8 563 15 308 6 623 12
700 14 354 7 2829 -4 3240 -14z m14284 -290 c214 -268 475 -614 676 -895 311
-436 858 -1275 842 -1292 -4 -3 -154 53 -334 125 -180 72 -440 172 -578 222
-263 97 -1164 400 -1189 400 -8 0 -17 4 -20 8 -2 4 18 98 45 207 113 448 215
924 278 1290 17 99 34 191 37 205 l6 25 20 -25 c12 -14 109 -135 217 -270z
m-19066 258 c-24 -30 -439 -631 -655 -948 -561 -825 -1269 -1903 -1793 -2733
-65 -103 -122 -184 -126 -180 -14 15 -2061 3564 -2057 3568 5 5 576 60 993 95
1058 88 2103 150 3355 199 310 12 294 13 283 -1z m6162 -14 c1024 -39 2103
-106 3085 -189 465 -40 911 -82 914 -87 2 -2 -1945 -3379 -2039 -3537 l-27
-44 -38 59 c-21 32 -143 223 -271 424 -490 770 -1101 1699 -1564 2380 -220
323 -641 932 -683 988 l-25 33 134 -6 c74 -3 305 -12 514 -21z m-19369 -464
c58 -298 135 -645 218 -975 36 -143 64 -260 63 -261 -1 -1 -114 -39 -252 -84
-576 -191 -1207 -428 -1682 -634 -46 -19 -83 -32 -83 -29 0 22 398 644 613
958 317 464 724 1012 986 1329 l65 79 13 -74 c7 -41 34 -180 59 -309z m13629
-75 c369 -578 856 -1351 1197 -1900 404 -649 896 -1450 894 -1452 -2 -2 -486
-7 -1077 -13 -1389 -13 -2207 -29 -3356 -66 -271 -9 -497 -14 -502 -12 -11 3
-6 11 379 613 362 564 586 907 961 1470 571 857 1219 1799 1230 1787 4 -4 127
-196 274 -427z m5197 95 c706 -1018 1377 -2026 2091 -3145 185 -290 244 -391
232 -393 -9 -2 -233 3 -498 12 -1110 36 -1972 53 -3356 66 -591 6 -1075 11
-1076 13 -6 8 1354 2193 1895 3042 534 839 471 746 490 721 9 -11 109 -154
222 -316z m5213 100 c1141 -124 2423 -312 3528 -517 172 -32 201 -40 214 -60
13 -20 5 -41 -125 -315 -361 -758 -1405 -2858 -1421 -2858 -3 0 -53 75 -111
168 -698 1120 -1506 2332 -2235 3358 -95 132 -175 246 -179 252 -5 8 2 10 21
7 15 -3 154 -19 308 -35z m-15815 25 c0 -3 -60 -90 -133 -193 -749 -1052
-1610 -2345 -2292 -3440 -71 -113 -91 -140 -101 -130 -18 19 -675 1325 -965
1918 -460 943 -590 1219 -580 1238 11 20 102 39 716 147 908 160 1976 312
3080 439 225 25 275 29 275 21z m15777 -716 c513 -733 1073 -1571 1586 -2374
277 -434 548 -867 544 -871 -2 -3 -195 11 -428 31 -1216 100 -2457 176 -3827
234 -238 10 -435 21 -438 23 -3 4 1095 1913 2008 3491 l80 137 127 -178 c70
-98 227 -320 348 -493z m-14538 -1145 c573 -993 1040 -1808 1038 -1811 -7 -6
-89 -11 -522 -28 -1230 -51 -2620 -137 -3809 -236 -197 -16 -360 -28 -362 -26
-12 11 818 1305 1307 2038 495 743 1277 1869 1298 1869 4 0 477 -813 1050
-1806z m-5555 1214 c-5 -7 -130 -195 -280 -418 -677 -1010 -1298 -2000 -1940
-3093 -99 -170 -184 -310 -189 -310 -14 -3 -281 738 -481 1338 -150 452 -278
863 -391 1257 l-77 269 24 45 c51 94 62 101 225 150 893 268 1790 494 2830
713 154 33 281 60 283 60 2 1 0 -5 -4 -11z m24414 -43 c640 -133 1339 -295
1877 -436 482 -126 1201 -331 1218 -348 16 -16 -286 -1029 -488 -1636 -166
-498 -466 -1340 -484 -1358 -5 -5 -61 83 -126 195 -625 1075 -1448 2387 -2094
3338 -225 331 -206 300 -186 300 8 0 136 -25 283 -55z m-24170 -380 c323 -677
808 -1655 1216 -2454 129 -252 223 -448 219 -452 -5 -5 -196 -27 -424 -49
-1135 -110 -2147 -231 -3123 -376 -164 -24 -302 -44 -307 -44 -21 0 737 1258
1181 1960 451 712 1097 1687 1111 1673 4 -4 61 -120 127 -258z m23965 -22
c593 -878 1278 -1964 1847 -2928 100 -170 198 -335 216 -365 18 -30 31 -56 29
-58 -1 -2 -155 19 -341 47 -944 139 -1989 265 -3044 366 -497 47 -470 43 -470
63 0 9 66 145 146 302 361 705 1168 2334 1371 2768 24 50 45 92 47 92 2 0 92
-129 199 -287z m-27783 -486 c0 -12 -59 -117 -131 -232 -516 -822 -1000 -1690
-1502 -2693 -164 -328 -203 -399 -209 -380 -9 29 -78 542 -118 873 -63 526
-139 1348 -143 1554 l-2 105 200 86 c509 220 1057 426 1800 678 110 37 105 37
105 9z m31727 -96 c555 -184 1018 -355 1526 -564 l198 -81 -5 -80 c-3 -45 -11
-151 -16 -236 -29 -422 -83 -961 -141 -1400 -35 -266 -107 -749 -115 -770 -4
-9 -27 28 -61 95 -217 433 -693 1339 -891 1695 -251 451 -637 1097 -860 1438
-8 13 -10 22 -4 22 6 0 172 -53 369 -119z m-404 -173 c312 -490 659 -1087 964
-1658 236 -442 813 -1558 813 -1572 0 -3 -100 19 -222 49 -686 164 -1514 332
-2301 466 -142 25 -260 47 -263 50 -4 3 31 106 76 229 293 794 569 1623 765
2303 36 127 69 238 71 248 3 9 7 17 9 17 2 0 41 -60 88 -132z m-31179 -226
c190 -650 492 -1553 774 -2309 l49 -132 -26 -5 c-14 -3 -134 -24 -266 -46
-721 -122 -1475 -274 -2148 -432 -120 -28 -220 -48 -223 -45 -13 13 578 1168
864 1687 297 539 878 1520 900 1520 4 0 38 -107 76 -238z m33626 -558 c513
-902 975 -1886 1356 -2887 63 -165 72 -197 56 -197 -4 0 -93 31 -198 69 -401
145 -897 300 -1408 438 -215 59 -250 71 -259 91 -8 17 2 99 42 350 117 735
191 1363 241 2052 11 151 20 286 20 300 l1 25 19 -24 c11 -13 70 -111 130
-217z m-36035 -74 c52 -685 134 -1416 236 -2128 23 -156 39 -285 37 -288 -3
-2 -121 -35 -264 -73 -445 -120 -925 -265 -1269 -386 l-157 -54 7 132 c7 128
9 136 60 267 297 764 718 1654 1157 2444 169 304 172 309 175 299 1 -5 9 -100
18 -213z m17780 -1074 c16 -24 12 -33 -216 -408 -556 -916 -1327 -2206 -1908
-3193 -172 -291 -324 -547 -337 -568 l-25 -38 -81 3 -82 3 -1192 2065 c-656
1136 -1191 2066 -1190 2068 4 3 752 28 1236 42 1015 27 2211 45 3217 48 l563
2 15 -24z m2625 4 c937 -16 2331 -54 2548 -68 l102 -7 -1181 -2045 c-649
-1125 -1187 -2055 -1195 -2068 -14 -21 -21 -23 -97 -20 l-81 3 -159 270 c-676
1146 -1693 2848 -2155 3608 l-182 298 17 26 17 26 901 -7 c495 -3 1154 -11
1465 -16z m-8040 -85 c0 -2 -107 -177 -238 -387 -602 -966 -1331 -2178 -2002
-3326 l-253 -433 -27 48 c-214 377 -1362 2537 -1844 3468 -151 292 -173 341
-158 347 17 6 194 21 857 73 964 74 2074 141 3245 194 223 10 408 19 413 20 4
0 7 -1 7 -4z m11880 -35 c1237 -60 2484 -141 3568 -234 84 -7 155 -15 158 -18
11 -12 -957 -1853 -1669 -3173 -368 -683 -370 -686 -377 -678 -4 5 -67 112
-140 238 -616 1063 -1444 2441 -2097 3492 -133 215 -243 395 -243 399 0 8 231
1 800 -26z m-10497 -2042 c648 -1122 1176 -2042 1175 -2044 -2 -1 -311 -7
-688 -13 -1456 -23 -2963 -61 -4000 -100 -113 -4 -206 -7 -208 -5 -7 5 924
1584 1351 2289 512 847 1174 1915 1186 1915 3 0 536 -919 1184 -2042z m9595
1884 c310 -491 895 -1447 1312 -2142 375 -625 1120 -1891 1120 -1902 0 -3 -26
-3 -57 -1 -32 2 -344 12 -693 23 -1189 37 -1920 55 -2895 70 -374 7 -809 15
-968 18 l-287 7 1166 2020 c1193 2067 1192 2065 1198 2065 2 0 49 -71 104
-158z m-5158 -392 c407 -674 673 -1116 1040 -1730 378 -634 1060 -1787 1060
-1792 0 -2 -1073 -4 -2385 -4 -1312 0 -2385 1 -2385 2 0 10 1121 1896 1622
2729 676 1123 760 1258 773 1243 7 -7 131 -209 275 -448z m-10478 127 c285
-563 1189 -2267 1799 -3392 194 -358 215 -400 196 -402 -12 -1 -195 -9 -407
-18 -1211 -49 -2727 -132 -3785 -209 -176 -12 -321 -22 -323 -21 -8 6 571
1050 949 1712 565 989 1457 2483 1483 2483 6 0 46 -69 88 -153z m20614 -54
c338 -552 804 -1337 1171 -1973 404 -700 1131 -2007 1121 -2014 -1 -1 -176 10
-388 25 -748 53 -1698 110 -2600 154 -574 28 -1429 65 -1496 65 -24 0 -44 4
-44 8 0 4 108 208 241 452 512 945 1057 1969 1484 2790 346 665 365 700 375
700 5 0 66 -93 136 -207z m-20953 155 c-11 -18 -108 -177 -215 -353 -642
-1056 -1438 -2439 -2018 -3508 -62 -114 -114 -206 -116 -205 -4 5 -159 348
-324 718 -389 875 -749 1738 -1060 2540 -135 347 -137 357 -70 371 142 29
1187 177 1755 248 593 74 1910 217 2023 220 l44 1 -19 -32z m21534 -13 c1141
-115 2277 -257 3198 -401 201 -31 205 -34 169 -129 -324 -862 -871 -2168
-1356 -3239 l-131 -289 -19 34 c-11 19 -122 221 -247 449 -612 1116 -1385
2451 -1989 3435 -57 94 -106 173 -109 178 -7 11 4 10 484 -38z m-25615 -499
c-118 -200 -608 -1083 -839 -1511 -347 -642 -829 -1584 -1094 -2135 -72 -151
-135 -279 -139 -283 -21 -24 -342 1308 -490 2038 -85 418 -240 1282 -240 1335
0 13 44 27 218 69 688 167 1443 320 2412 490 212 37 196 38 172 -3z m29457 -6
c560 -93 1277 -232 1833 -356 350 -77 765 -178 774 -187 12 -11 -132 -722
-247 -1222 -126 -549 -325 -1303 -492 -1863 l-63 -213 -361 723 c-539 1078
-985 1913 -1567 2937 -64 112 -116 208 -116 213 0 5 12 7 28 4 15 -3 110 -19
211 -36z m-29340 -227 c8 -21 73 -189 146 -373 332 -838 726 -1764 1159 -2719
81 -178 145 -325 142 -328 -2 -3 -139 -16 -303 -29 -998 -80 -1934 -171 -2772
-270 -211 -24 -386 -43 -388 -40 -12 11 628 1290 975 1946 345 655 1005 1850
1022 1850 3 0 12 -17 19 -37z m29234 -343 c498 -888 906 -1655 1336 -2510 255
-508 445 -900 438 -906 -2 -3 -157 13 -343 35 -810 96 -1774 191 -2817 275
-165 14 -301 26 -303 29 -2 2 46 114 107 248 443 974 913 2077 1234 2894 64
165 119 304 122 308 3 5 9 5 13 0 4 -4 100 -172 213 -373z m-32479 -176 c-274
-576 -736 -1621 -1294 -2926 -96 -224 -178 -404 -181 -400 -5 6 -29 267 -64
702 -35 434 -61 1407 -50 1903 l7 358 37 15 c77 32 609 206 866 283 273 82
738 211 743 207 1 -2 -28 -65 -64 -142z m35816 41 c129 -36 330 -95 445 -130
357 -109 1022 -338 1044 -360 11 -12 5 -1043 -7 -1250 -19 -300 -40 -564 -67
-820 -27 -251 -106 -827 -113 -820 -2 2 -63 143 -134 312 -393 933 -1061 2395
-1410 3086 -25 50 -27 58 -11 53 10 -2 124 -35 253 -71z m-370 -122 c308 -630
674 -1413 950 -2034 275 -619 665 -1541 658 -1557 -1 -4 -104 11 -228 35 -529
100 -1393 237 -2010 318 -151 20 -280 38 -287 40 -7 3 2 45 29 132 264 852
561 2031 738 2928 61 311 59 305 64 305 2 0 41 -75 86 -167z m-35204 -293
c147 -836 348 -1754 565 -2585 45 -170 82 -314 83 -319 0 -5 -109 -24 -244
-42 -600 -82 -1241 -182 -1758 -275 -156 -28 -285 -49 -288 -46 -3 3 142 349
322 769 506 1182 798 1846 1097 2493 159 346 162 350 165 334 1 -8 27 -156 58
-329z m-1987 -1750 c28 -512 66 -1000 105 -1345 12 -110 21 -205 19 -211 -2
-5 -148 -41 -324 -78 -176 -38 -409 -90 -517 -116 -108 -27 -199 -46 -201 -44
-7 6 105 605 164 884 171 796 374 1535 633 2303 l97 289 6 -739 c4 -406 12
-830 18 -943z m39430 753 c189 -627 355 -1293 485 -1948 60 -300 117 -627 112
-633 -3 -2 -116 23 -253 57 -215 52 -387 91 -689 156 -101 22 -103 30 -64 256
135 782 214 1695 221 2544 l1 150 58 -175 c33 -96 90 -280 129 -407z m-17910
-1302 l464 -6 43 -70 43 -70 -25 -45 c-14 -25 -595 -1032 -1291 -2238 l-1266
-2193 -18 28 c-80 131 -2559 4435 -2559 4445 0 6 18 42 40 80 l41 68 407 3
c818 5 3670 4 4121 -2z m-4864 -73 c21 -35 38 -67 38 -73 0 -5 -149 -265 -331
-577 -612 -1048 -1384 -2386 -2018 -3495 -126 -221 -232 -399 -236 -395 -28
28 -1434 2540 -2070 3697 -379 691 -428 780 -428 786 0 24 3509 112 4636 117
l372 2 37 -62z m6770 52 c1110 -19 2253 -47 3130 -75 707 -23 805 -27 805 -36
0 -8 -331 -614 -712 -1304 -459 -829 -815 -1465 -1644 -2937 -76 -136 -141
-247 -144 -247 -3 0 -119 201 -259 447 -551 968 -1358 2365 -1997 3461 -178
305 -324 558 -324 563 0 6 16 39 36 74 l36 64 251 0 c139 0 509 -5 822 -10z
m-12135 -115 c0 -3 -125 -225 -279 -493 -701 -1226 -1447 -2573 -2001 -3614
-107 -202 -198 -364 -201 -360 -4 4 -122 230 -263 502 -708 1366 -1840 3689
-1807 3709 13 8 541 46 1341 96 845 53 1703 98 2770 144 228 10 421 19 428 20
6 0 12 -1 12 -4z m16880 -20 c857 -35 2027 -96 2880 -150 591 -38 1132 -75
1167 -81 l31 -5 -38 -82 c-523 -1133 -1465 -3035 -1997 -4035 l-55 -103 -220
413 c-578 1084 -1291 2371 -1987 3586 -149 261 -271 474 -271 475 0 1 24 1 52
0 29 -2 226 -10 438 -18z m-16432 -585 c553 -1009 1190 -2150 1843 -3307 203
-359 369 -657 369 -663 0 -7 -774 -10 -2490 -10 -1835 0 -2490 3 -2490 11 0
34 928 1745 1513 2789 257 458 865 1529 935 1644 l35 59 15 -29 c8 -16 129
-238 270 -494z m16362 -490 c477 -842 990 -1768 1422 -2570 196 -362 488 -912
488 -917 0 -2 -1123 -3 -2495 -3 -1521 0 -2495 4 -2495 9 0 5 75 141 166 303
670 1180 1523 2709 2084 3733 111 204 213 389 227 413 l25 43 140 -243 c77
-134 274 -479 438 -768z m-10032 -1288 c694 -1204 1262 -2191 1262 -2195 0 -4
-1139 -7 -2531 -7 -2406 0 -2531 1 -2524 18 28 75 2510 4372 2525 4372 3 0
573 -985 1268 -2188z m4464 1578 c883 -1514 2168 -3750 2168 -3771 0 -5 -944
-9 -2530 -9 -1391 0 -2530 2 -2530 5 0 5 2486 4315 2517 4363 14 23 15 23 27
5 7 -10 164 -277 348 -593z m-16082 524 c0 -4 -69 -138 -154 -298 -645 -1217
-1278 -2501 -1788 -3621 -83 -181 -153 -333 -157 -337 -4 -4 -75 147 -159 336
-533 1202 -943 2281 -1233 3247 -44 147 -81 280 -82 295 l-2 29 215 27 c727
92 1918 212 2835 287 204 17 386 32 405 34 65 7 120 7 120 1z m26416 -19 c685
-55 1406 -122 2049 -190 363 -39 1108 -125 1113 -130 4 -4 -248 -763 -348
-1050 -293 -834 -585 -1583 -957 -2457 -74 -175 -138 -318 -141 -318 -4 0 -58
114 -121 253 -474 1044 -1130 2374 -1762 3570 -99 185 -179 339 -179 342 0 8
16 7 346 -20z m-26186 -298 c450 -969 1136 -2352 1771 -3573 115 -221 209
-404 209 -408 0 -3 -929 -6 -2065 -6 -1136 0 -2065 3 -2065 6 0 17 439 963
685 1474 184 385 626 1270 833 1670 265 513 534 1020 541 1020 3 0 44 -82 91
-183z m25803 6 c487 -912 1064 -2063 1504 -2996 195 -414 453 -978 453 -989 0
-4 -929 -8 -2065 -8 -1136 0 -2065 2 -2065 5 0 3 83 164 184 358 657 1260
1294 2545 1841 3715 24 50 46 92 49 92 2 0 47 -80 99 -177z m-29823 -69 c0 -3
-63 -142 -139 -308 -526 -1141 -994 -2264 -1367 -3280 -68 -187 -50 -200 -149
109 -243 762 -446 1612 -579 2425 -43 263 -96 626 -96 661 0 32 -23 26 290 83
545 99 1437 238 2033 315 4 1 7 -2 7 -5z m33961 -34 c542 -75 946 -136 1404
-215 297 -51 736 -133 743 -139 9 -10 -138 -684 -240 -1096 -117 -474 -272
-1030 -423 -1515 -103 -332 -229 -715 -235 -715 -3 0 -66 161 -139 358 -370
985 -798 2004 -1295 3081 -69 150 -126 275 -126 277 0 6 -1 6 311 -36z m-310
-390 c514 -1118 947 -2160 1338 -3223 50 -136 91 -254 91 -262 0 -13 -188 -15
-1503 -15 -827 0 -1506 2 -1509 5 -2 3 66 170 153 372 449 1051 852 2113 1180
3111 56 172 106 309 111 304 4 -4 67 -136 139 -292z m-33395 -320 c294 -904
642 -1800 1110 -2857 74 -167 134 -307 134 -313 0 -7 -484 -10 -1465 -10
-1282 0 -1465 2 -1465 15 0 17 143 407 280 765 252 656 574 1435 868 2095 101
228 339 750 360 790 l15 30 34 -110 c19 -60 77 -243 129 -405z m-2886 314 c0
-4 -43 -113 -96 -242 -354 -866 -691 -1837 -940 -2709 -31 -112 -59 -201 -61
-200 -1 2 -30 134 -63 293 l-61 289 11 195 c24 448 65 932 115 1360 27 221
102 766 109 786 5 13 285 83 631 159 116 25 237 52 270 59 70 17 85 18 85 10z
m39261 -64 c101 -23 314 -73 472 -111 249 -61 290 -74 298 -93 26 -61 133
-945 173 -1426 40 -478 40 -465 17 -695 -21 -209 -55 -504 -67 -579 -6 -35
-18 -4 -124 315 -272 818 -606 1734 -909 2492 -50 125 -54 137 -48 137 2 0 87
-18 188 -40z m-348 -47 c3 -10 63 -166 135 -348 336 -855 693 -1856 957 -2683
75 -238 86 -278 78 -310 l-9 -37 -1058 -3 c-1005 -2 -1058 -1 -1051 15 53 137
319 975 428 1353 183 628 417 1571 488 1963 12 67 22 82 32 50z m-38749 -165
c94 -703 295 -1642 510 -2388 67 -231 217 -709 242 -769 8 -18 14 -40 14 -47
0 -12 -152 -14 -965 -14 -531 0 -965 2 -965 5 0 10 94 352 156 565 182 628
389 1252 625 1884 119 319 350 896 358 896 4 0 15 -60 25 -132z m40113 -3120
c-3 -8 -6 -5 -6 6 -1 11 2 17 5 13 3 -3 4 -12 1 -19z m-41495 -61 c1 -14 -1
-27 -7 -29 -6 -2 -11 19 -12 47 -2 36 0 44 6 29 5 -11 11 -32 13 -47z m2155
-219 c-2 -7 -48 -139 -101 -293 -299 -871 -575 -1797 -776 -2605 -38 -157 -74
-293 -78 -303 -17 -41 -406 1151 -622 1910 -123 429 -340 1260 -340 1299 0 2
432 4 961 4 765 0 960 -3 956 -12z m3283 4 c0 -4 -52 -127 -116 -272 -478
-1090 -930 -2231 -1315 -3317 -24 -68 -47 -123 -50 -123 -4 0 -66 129 -139
288 -427 927 -840 1905 -1173 2782 -120 317 -237 633 -237 643 0 4 682 7 1515
7 833 0 1515 -4 1515 -8z m4410 2 c0 -3 -85 -169 -189 -368 -599 -1148 -1211
-2378 -1733 -3486 -72 -151 -135 -287 -140 -302 -5 -16 -13 -28 -16 -28 -11 1
-500 909 -846 1570 -230 439 -737 1446 -926 1840 -175 363 -360 760 -360 771
0 5 860 9 2105 9 1158 0 2105 -3 2105 -6z m5277 -36 c-297 -509 -2016 -3590
-2402 -4305 l-28 -53 -57 0 -58 0 -250 438 c-677 1184 -1343 2388 -1887 3407
-108 204 -220 412 -247 463 l-49 92 2501 0 2502 0 -25 -42z m5364 -10 c-17
-29 -585 -1015 -1263 -2190 -678 -1175 -1237 -2136 -1241 -2135 -21 6 -2489
4273 -2523 4362 -6 13 265 15 2526 15 l2532 0 -31 -52z m5307 -125 c-578
-1020 -2427 -4218 -2434 -4210 -2 2 -2211 3827 -2480 4295 l-53 92 2534 0
2534 0 -101 -177z m5331 40 c-556 -1057 -1574 -2900 -2241 -4055 l-120 -208
-56 0 -57 0 -179 328 c-587 1072 -2175 3913 -2264 4050 l-14 22 2502 0 2502 0
-73 -137z m4496 103 c-33 -79 -288 -633 -430 -935 -437 -931 -955 -1962 -1493
-2974 l-127 -238 -39 83 c-566 1209 -1223 2533 -1872 3776 -90 172 -164 315
-164 318 0 2 931 4 2069 4 l2070 0 -14 -34z m3305 29 c0 -10 -155 -438 -257
-710 -324 -863 -725 -1820 -1145 -2732 -72 -156 -134 -281 -138 -276 -3 4 -46
121 -95 258 -319 905 -790 2091 -1249 3142 -75 172 -136 315 -136 318 0 3 680
5 1510 5 831 0 1510 -2 1510 -5z m2335 -17 c-3 -13 -23 -120 -45 -238 -200
-1073 -534 -2241 -941 -3290 l-33 -85 -29 125 c-230 999 -500 1948 -847 2980
-92 272 -170 503 -175 513 -7 16 46 17 1034 17 l1041 0 -5 -22z m-19316 -2268
l1261 -2185 -468 -6 c-604 -8 -3517 -8 -4128 0 l-472 6 1266 2193 c696 1206
1269 2189 1273 2185 3 -5 574 -991 1268 -2193z m-6249 1500 c577 -1010 1224
-2130 1839 -3184 160 -275 290 -501 287 -503 -7 -8 -2653 25 -3726 47 -261 5
-638 13 -837 16 -200 4 -363 9 -363 11 0 8 728 1328 1138 2063 460 824 1214
2165 1249 2219 l15 24 18 -29 c10 -16 181 -315 380 -664z m10670 132 c759
-1346 2049 -3666 2075 -3733 5 -14 -34 -17 -357 -23 -200 -3 -577 -11 -838
-16 -1026 -21 -3718 -55 -3726 -47 -2 1 126 223 283 492 631 1081 1386 2391
1926 3337 172 301 314 548 317 548 3 0 147 -251 320 -558z m-16090 33 c541
-1012 1257 -2304 1924 -3470 l166 -290 -32 -3 c-80 -8 -2144 59 -3328 108
-882 37 -965 41 -1007 46 l-42 5 14 32 c23 55 354 756 525 1112 319 662 1086
2186 1426 2832 l77 145 37 -68 c21 -38 129 -240 240 -449z m21235 200 c442
-846 1050 -2061 1430 -2855 243 -508 445 -943 440 -949 -18 -18 -2358 -106
-4164 -157 l-245 -7 23 39 c123 208 863 1518 1163 2059 339 612 905 1655 1119
2062 35 67 67 119 71 115 4 -4 77 -142 163 -307z m9975 5 c0 -309 -56 -1118
-116 -1665 -55 -502 -193 -1427 -217 -1451 -4 -4 -58 -16 -120 -25 -223 -36
-599 -91 -602 -87 -1 2 33 98 76 213 363 963 654 1981 853 2985 24 124 48 248
52 275 l8 50 33 -105 c26 -84 33 -122 33 -190z m-5523 -160 c451 -1039 884
-2138 1233 -3126 75 -211 89 -260 78 -270 -14 -14 -548 -58 -1383 -114 -909
-60 -2024 -124 -2092 -118 l-40 3 164 310 c523 987 1047 2036 1465 2930 131
279 331 714 365 795 l15 35 25 -55 c14 -30 90 -206 170 -390z m-33584 130
c386 -1035 841 -2120 1356 -3229 73 -156 130 -285 128 -287 -16 -16 -2334 219
-2474 251 -29 7 -87 154 -77 199 86 417 356 1421 556 2071 149 486 405 1262
413 1253 2 -2 46 -118 98 -258z m36836 -192 c333 -1007 595 -1938 800 -2838
l48 -215 -26 -8 c-74 -21 -1291 -153 -1991 -216 -245 -23 -473 -43 -508 -47
l-62 -6 34 74 c491 1060 762 1686 1101 2543 115 289 331 862 405 1073 18 50
36 92 41 92 4 0 75 -204 158 -452z m-33485 7 c411 -866 1028 -2071 1637 -3197
110 -202 199 -370 199 -374 0 -23 -3407 193 -3487 221 -7 2 -13 14 -13 26 0
61 444 1258 748 2019 209 522 648 1565 709 1684 l16 30 27 -60 c15 -32 89
-189 164 -349z m-5448 -290 c207 -763 477 -1621 748 -2380 47 -131 86 -247 86
-257 0 -9 -5 -39 -10 -66 l-11 -48 -67 8 c-130 17 -677 99 -693 104 -12 3 -23
47 -47 182 -138 782 -231 1601 -282 2487 l-10 170 51 220 c28 121 54 224 57
229 3 5 27 -76 54 -180 26 -104 82 -315 124 -469z m40834 -2830 c0 -23 -95
-471 -151 -715 -74 -320 -158 -648 -256 -994 -71 -248 -89 -303 -95 -280 -4
16 -19 117 -33 224 -51 388 -149 963 -239 1405 -33 162 -33 171 -19 210 9 22
19 43 22 47 3 3 132 25 286 47 154 23 316 47 360 55 109 19 125 19 125 1z
m-40371 -61 c168 -24 306 -46 306 -47 1 -1 -29 -155 -66 -342 -67 -332 -175
-953 -200 -1147 -7 -54 -16 -98 -19 -98 -21 0 -248 914 -354 1425 -26 121 -49
231 -52 244 -5 23 -4 23 38 17 24 -4 180 -27 347 -52z m546 -196 c407 -1058
847 -2064 1341 -3067 112 -228 203 -415 201 -417 -4 -4 -387 104 -638 180
-239 72 -555 176 -780 256 l-147 51 -67 187 c-124 344 -305 903 -305 943 0 45
57 467 101 744 42 271 110 646 174 964 30 151 55 276 55 278 0 2 4 3 9 3 5 0
31 -55 56 -122z m38820 93 c5 -23 -12 -73 -76 -228 -262 -638 -555 -1297 -848
-1911 -202 -423 -683 -1368 -710 -1395 -5 -5 -16 25 -26 70 -30 141 -202 833
-265 1068 -147 549 -313 1108 -521 1754 -72 222 -129 405 -127 406 2 2 138 15
303 29 655 57 1550 151 2010 210 251 33 252 33 260 -3z m-38256 -41 c420 -48
1214 -128 1641 -165 168 -15 307 -29 310 -31 2 -3 -13 -55 -33 -117 -332 -995
-586 -1883 -845 -2952 l-9 -40 -140 285 c-442 899 -862 1851 -1213 2750 -137
350 -129 323 -93 316 15 -3 187 -24 382 -46z m2811 -260 c798 -58 1724 -116
2585 -161 226 -11 411 -22 413 -24 2 -2 -73 -171 -166 -377 -345 -759 -631
-1417 -909 -2093 -153 -371 -423 -1050 -423 -1064 0 -41 -23 -3 -383 644 -224
403 -545 997 -756 1400 -165 314 -668 1315 -787 1563 l-73 154 47 -6 c26 -4
229 -20 452 -36z m32510 32 c0 -16 -685 -1380 -870 -1731 -398 -756 -1105
-2039 -1118 -2026 -2 2 -98 237 -212 522 -373 933 -731 1767 -1164 2717 -75
164 -135 300 -134 301 2 2 228 15 503 29 991 53 2824 171 2930 190 39 7 65 6
65 -2z m-32710 -997 c471 -936 878 -1696 1427 -2667 95 -169 173 -312 173
-318 0 -6 -10 -8 -22 -5 -13 2 -193 34 -400 70 -843 146 -1599 302 -2308 477
-135 33 -252 64 -261 69 -9 4 -22 22 -29 38 -11 27 -8 49 20 168 145 622 343
1357 545 2018 84 277 316 999 347 1084 l21 54 105 -219 c58 -120 230 -466 382
-769z m33038 573 c280 -856 484 -1565 677 -2343 105 -426 141 -583 134 -588
-9 -9 -755 -189 -1042 -252 -673 -148 -1997 -396 -1997 -374 0 5 74 138 163
296 635 1117 1343 2458 1803 3415 65 137 122 248 125 248 3 0 64 -181 137
-402z m2727 82 c92 -502 166 -1004 225 -1523 l20 -178 -72 -212 c-39 -117 -95
-277 -123 -356 l-52 -145 -114 -43 c-277 -105 -797 -275 -1215 -397 -204 -60
-222 -64 -206 -43 22 27 402 775 558 1097 329 682 696 1497 916 2040 6 14 12
21 14 15 2 -5 24 -120 49 -255z m-31740 90 c1222 -52 2706 -103 3692 -126
l293 -7 31 -55 c29 -52 30 -57 16 -81 -173 -299 -1444 -2686 -1949 -3660 -95
-184 -178 -336 -183 -338 -6 -2 -42 47 -79 109 -661 1082 -1174 1958 -1838
3133 -154 272 -543 969 -577 1033 l-12 23 73 -6 c40 -3 280 -14 533 -25z
m24909 -57 c-607 -1119 -1310 -2347 -1998 -3491 -378 -627 -434 -717 -447
-717 -6 0 -69 113 -141 250 -591 1137 -1083 2065 -1709 3221 l-299 552 25 45
c14 25 31 49 38 55 7 5 220 14 482 21 1318 33 3514 114 4073 150 23 1 22 -2
-24 -86z m-19759 -103 c1298 -25 3060 -49 3725 -51 228 -1 425 -4 437 -7 19
-6 -79 -181 -1223 -2162 -685 -1185 -1247 -2155 -1249 -2155 -3 0 -114 176
-248 390 -679 1090 -1473 2409 -2144 3565 l-195 334 26 54 27 54 172 -6 c95
-4 397 -11 672 -16z m14929 -24 c14 -25 26 -50 26 -57 0 -13 -167 -303 -565
-979 -607 -1030 -1204 -2017 -1798 -2968 -212 -340 -221 -353 -234 -330 -8 12
-569 984 -1247 2158 -1108 1920 -1230 2136 -1212 2141 12 3 415 9 896 13 1110
8 2702 32 3655 55 171 4 342 8 382 9 l71 2 26 -44z m5004 -8 c11 -24 92 -205
182 -403 200 -445 446 -1010 637 -1465 290 -692 663 -1633 663 -1674 0 -34
-16 -42 -100 -54 -41 -7 -223 -34 -405 -61 -624 -94 -1401 -195 -2130 -276
-481 -53 -1214 -127 -1226 -123 -4 2 24 55 63 118 671 1092 1602 2707 2259
3918 18 34 35 62 36 62 1 0 11 -19 21 -42z m-25595 -313 c703 -1262 1483
-2605 2101 -3614 42 -69 74 -126 72 -128 -5 -5 -747 69 -1266 127 -768 86
-1510 182 -2170 281 -184 28 -352 53 -373 56 -67 10 -68 32 -13 181 252 669
742 1849 1149 2762 269 604 300 671 308 668 5 -2 91 -151 192 -333z m15217
279 c0 -27 -2477 -4173 -2519 -4217 -14 -14 -1256 2050 -2270 3772 -143 244
-261 445 -261 447 0 2 1136 3 2525 3 1389 0 2525 -2 2525 -5z m-5176 -137
c177 -315 1541 -2605 2240 -3759 l307 -507 -18 -27 -17 -27 -801 7 c-1260 11
-2270 28 -3230 56 -520 15 -980 32 -984 36 -5 4 2461 4274 2468 4274 3 0 19
-24 35 -53z m6582 -2090 l1231 -2132 -126 -7 c-258 -13 -1303 -42 -2086 -58
-552 -11 -2128 -30 -2552 -30 l-262 0 -15 28 c-13 26 -11 32 79 180 498 814
1521 2525 2189 3662 314 533 296 504 304 495 4 -4 561 -966 1238 -2138z
m-11708 1598 c726 -1245 1736 -2919 2193 -3635 l48 -75 -32 -3 c-90 -10 -1821
81 -2757 143 -694 47 -1738 130 -1747 139 -2 2 21 50 51 107 29 57 170 327
311 599 353 677 810 1539 1225 2310 445 827 453 841 461 832 4 -4 115 -191
247 -417z m15858 338 c892 -1649 2005 -3756 1991 -3770 -15 -15 -1442 -122
-2357 -178 -723 -43 -1962 -105 -2117 -105 l-62 0 136 218 c695 1114 1559
2551 2237 3720 65 111 119 202 121 202 2 0 25 -39 51 -87z m11358 -2300 c-100
-267 -308 -760 -480 -1138 -190 -420 -728 -1474 -744 -1459 -2 3 -19 120 -37
262 -60 475 -146 995 -254 1534 -32 164 -59 308 -59 320 1 46 22 57 246 119
404 112 1025 310 1254 398 41 16 80 29 87 30 8 1 3 -22 -13 -66z m-38429 -92
c331 -110 587 -189 920 -281 121 -34 221 -62 221 -63 1 -1 -13 -72 -32 -157
-91 -425 -202 -1061 -270 -1547 -30 -218 -40 -269 -49 -255 -7 9 -72 131 -145
271 -345 659 -639 1307 -951 2094 -14 34 -16 47 -7 44 7 -3 148 -51 313 -106z
m36635 -405 c0 -7 -267 -483 -382 -681 -275 -473 -625 -1044 -968 -1580 -216
-336 -711 -1078 -716 -1073 -2 3 -31 99 -65 214 -193 667 -441 1415 -726 2193
-63 172 -111 317 -106 321 4 4 58 15 118 25 691 108 1894 353 2555 519 243 61
290 71 290 62z m-35275 -138 c545 -1055 1240 -2250 1949 -3350 20 -32 33 -58
28 -58 -14 0 -512 169 -738 250 -462 167 -1238 477 -1293 518 -22 16 -179 274
-309 507 l-61 110 10 85 c47 402 119 884 195 1300 60 335 146 750 154 750 4 0
33 -51 65 -112z m430 38 c702 -168 1474 -324 2250 -456 132 -22 250 -43 262
-45 21 -5 20 -7 -24 -122 -249 -658 -664 -1903 -824 -2475 -18 -65 -36 -118
-40 -118 -7 0 -218 332 -439 689 -419 680 -886 1494 -1250 2176 -67 127 -144
272 -171 323 -28 50 -46 92 -42 92 5 0 130 -29 278 -64z m35000 -401 c108
-561 201 -1172 255 -1662 17 -154 19 -197 9 -215 -7 -13 -54 -94 -106 -180
-88 -148 -96 -158 -141 -179 -323 -145 -862 -364 -1257 -509 -275 -101 -896
-312 -902 -306 -2 2 129 201 290 442 666 994 1209 1872 1712 2767 42 76 79
137 81 135 1 -2 28 -134 59 -293z m-32045 -520 c644 -1097 1441 -2361 2063
-3270 64 -93 114 -171 112 -173 -4 -5 -142 23 -515 103 -913 196 -1869 442
-2639 679 -146 45 -159 52 -192 113 -29 53 401 1431 740 2374 145 404 203 560
206 557 1 -2 102 -174 225 -383z m28835 72 c222 -608 438 -1250 612 -1817 101
-333 223 -759 223 -783 0 -10 -12 -36 -27 -58 -32 -45 -40 -48 -418 -159 -472
-139 -1124 -312 -1625 -430 -452 -107 -1279 -285 -1287 -277 -2 2 156 242 350
533 489 733 848 1296 1305 2044 189 309 581 968 698 1171 35 62 51 83 57 73 4
-8 55 -141 112 -297z m-28260 194 c942 -135 2321 -296 3118 -362 82 -7 155
-18 163 -24 13 -9 -13 -66 -167 -365 -363 -709 -1104 -2206 -1336 -2699 l-54
-115 -35 50 c-139 194 -771 1157 -1069 1629 -393 622 -1154 1879 -1182 1952
-5 14 0 15 33 10 21 -3 260 -37 529 -76z m27843 -43 c-276 -475 -817 -1363
-1146 -1883 -375 -591 -1069 -1641 -1079 -1632 -2 3 -79 160 -169 348 -264
548 -670 1369 -1046 2111 -191 378 -348 694 -348 702 0 20 -9 18 495 66 993
94 2135 232 3020 364 160 24 302 44 317 45 27 1 27 0 -44 -121z m-23886 -393
c1120 -91 2352 -167 3635 -225 248 -11 488 -20 532 -20 45 0 81 -2 81 -5 0 -6
-2080 -3608 -2089 -3618 -7 -7 -287 381 -629 875 -575 830 -1228 1821 -1777
2698 -98 157 -185 295 -193 308 -13 19 -13 22 1 22 9 0 206 -16 439 -35z
m19868 15 c-33 -62 -539 -860 -818 -1290 -619 -955 -1761 -2616 -1782 -2593
-14 15 -2073 3587 -2077 3604 -4 14 18 17 199 23 1100 37 3278 170 4258 260
80 7 164 14 188 15 40 1 42 0 32 -19z m-20339 -287 c670 -1079 1494 -2319
2237 -3366 112 -159 203 -290 201 -291 -4 -4 -13 -3 -549 60 -1094 128 -2155
287 -3175 475 -181 34 -336 67 -343 74 -15 14 68 193 503 1085 276 568 1037
2080 1046 2080 4 0 40 -53 80 -117z m20991 -950 c465 -931 993 -2011 1012
-2069 3 -10 2 -25 -3 -33 -20 -31 -1265 -245 -2221 -381 -645 -92 -1836 -237
-1847 -226 -3 2 79 122 181 266 720 1010 1574 2295 2266 3408 35 56 67 102 71
102 4 0 248 -480 541 -1067z m-15247 937 c980 -32 1971 -49 3153 -57 573 -3
1042 -8 1042 -9 0 -4 -541 -882 -815 -1324 -598 -963 -1546 -2460 -1559 -2460
-5 0 -239 335 -508 725 -547 795 -1238 1841 -1853 2805 -103 162 -195 306
-204 319 l-15 24 234 -7 c129 -4 366 -11 525 -16z m9614 -17 c-58 -95 -454
-713 -687 -1072 -637 -984 -1840 -2758 -1867 -2755 -25 3 -1365 2131 -2234
3549 l-141 230 982 7 c1226 8 2301 28 3333 63 204 6 430 13 503 14 l134 1 -23
-37z m-5074 -155 c500 -825 1454 -2356 2084 -3343 165 -258 296 -473 293 -476
-17 -16 -1312 -34 -2482 -34 -1102 0 -2389 16 -2458 31 -22 4 -22 5 15 62 545
847 1478 2337 2118 3382 153 250 285 463 293 473 8 9 27 17 42 17 23 0 35 -14
95 -112z m-4653 -1147 c499 -768 1144 -1729 1611 -2399 97 -140 179 -257 181
-261 3 -4 -34 -6 -82 -4 -1123 41 -1801 77 -2732 143 -720 52 -1788 147 -1812
161 -7 5 346 626 1012 1781 563 975 1028 1778 1033 1785 6 9 90 -115 274 -404
145 -228 377 -589 515 -802z m10935 -590 c563 -975 1023 -1774 1021 -1776 -5
-3 -646 -63 -1028 -95 -1051 -88 -2459 -171 -3320 -195 -113 -3 -225 -8 -249
-11 -36 -5 -43 -3 -38 9 3 9 77 118 165 244 665 953 1492 2199 2202 3318 73
116 149 234 168 264 31 49 35 53 45 35 6 -10 471 -817 1034 -1793z m11271 327
c-362 -579 -821 -1231 -1240 -1765 -193 -245 -371 -463 -378 -463 -3 0 -12 35
-19 78 -44 267 -162 805 -265 1217 -36 143 -64 260 -63 261 1 0 151 51 332
112 526 176 1186 426 1565 591 63 28 116 51 118 51 1 0 -21 -37 -50 -82z
m-34905 -112 c421 -170 1129 -428 1447 -527 58 -17 108 -35 112 -38 4 -3 -17
-102 -47 -219 -78 -306 -156 -649 -215 -942 -28 -140 -52 -256 -54 -258 -9 -9
-395 482 -642 818 -219 297 -408 569 -627 902 -231 351 -246 374 -226 366 8
-3 121 -49 252 -102z m1983 -943 c562 -834 1147 -1634 1721 -2355 95 -120 171
-218 168 -218 -11 0 -571 206 -815 300 -340 131 -507 198 -868 347 l-303 126
-108 121 c-225 253 -361 417 -361 436 0 79 155 815 266 1265 74 297 74 296 84
290 5 -3 102 -143 216 -312z m30778 265 c53 -185 186 -760 250 -1083 79 -396
106 -558 93 -574 -26 -31 -814 -386 -1392 -628 -223 -93 -676 -275 -867 -347
-79 -30 -156 -59 -172 -65 -37 -15 -49 -31 185 256 537 659 1058 1344 1587
2087 131 182 248 348 262 369 14 20 28 37 32 37 4 0 13 -24 22 -52z m-30474
-107 c753 -220 1672 -446 2585 -636 148 -31 270 -57 272 -59 2 -1 -36 -86 -83
-187 -251 -538 -559 -1221 -754 -1674 -61 -143 -114 -263 -118 -266 -12 -12
-496 599 -882 1111 -408 542 -746 1015 -1121 1570 -154 227 -146 214 -123 206
11 -3 111 -32 224 -65z m30160 64 c0 -14 -514 -722 -798 -1099 -528 -702
-1326 -1696 -1361 -1696 -11 0 -31 36 -65 118 -147 347 -480 1091 -732 1632
-73 156 -132 286 -131 287 2 1 124 27 272 58 597 124 1239 274 1791 420 331
87 984 271 993 280 6 7 31 6 31 0z m-26910 -1075 c616 -878 1279 -1756 1904
-2524 116 -142 221 -271 234 -287 18 -23 20 -29 8 -29 -29 0 -888 218 -1256
319 -403 110 -854 242 -1224 357 -320 100 -819 264 -829 274 -14 13 357 861
731 1670 221 477 233 503 236 499 2 -2 90 -128 196 -279z m23813 -110 c363
-782 753 -1668 740 -1680 -21 -19 -942 -325 -1423 -474 -519 -159 -1516 -438
-1760 -491 -40 -9 -46 -20 61 110 644 785 1645 2115 2150 2859 24 35 47 61 51
58 4 -4 86 -176 181 -382z m-23440 285 c1027 -185 2113 -342 3281 -475 198
-22 361 -42 362 -43 2 -1 -1416 -2461 -1484 -2575 -5 -8 -19 -10 -41 -6 -29 6
-60 39 -209 218 -627 754 -1351 1700 -1994 2606 -215 304 -233 330 -224 330 3
0 142 -25 309 -55z m22997 49 c0 -8 -275 -395 -524 -739 -519 -716 -1085
-1447 -1628 -2106 l-178 -217 -81 -20 -81 -20 -21 36 c-137 228 -1442 2498
-1438 2499 3 1 92 12 196 23 1223 134 2642 340 3555 515 192 36 200 38 200 29z
m-18804 -619 c1173 -116 2593 -209 4044 -266 157 -6 286 -12 287 -13 6 -6
-1030 -1576 -1420 -2151 -473 -698 -550 -806 -562 -793 -29 31 -374 439 -511
603 -476 572 -963 1186 -1447 1826 -202 268 -574 769 -591 797 -10 16 14 16
200 -3z m14498 3 c-61 -102 -781 -1055 -1188 -1573 -529 -674 -1361 -1675
-1377 -1658 -13 16 -384 560 -676 993 -313 464 -709 1062 -1075 1625 l-215
330 136 7 c75 4 314 14 531 23 1188 48 2604 143 3560 239 289 29 314 30 304
14z m-14753 -223 c647 -891 1559 -2045 2251 -2853 81 -95 148 -174 148 -175 0
-5 -345 38 -720 88 -845 114 -1720 262 -2555 431 -583 117 -721 149 -717 165
8 31 1456 2529 1462 2522 4 -5 63 -84 131 -178z m15668 -1064 c392 -678 710
-1235 707 -1238 -7 -8 -192 -51 -541 -127 -1004 -217 -2013 -394 -3058 -536
-165 -22 -310 -40 -323 -40 -21 0 -5 23 119 168 718 839 1581 1934 2272 2884
55 75 103 133 106 130 4 -4 327 -562 718 -1241z m-9954 979 c1380 -23 2712
-20 3805 9 151 4 276 7 277 6 8 -4 -684 -953 -1042 -1430 -526 -699 -1341
-1733 -1355 -1718 -63 72 -549 682 -786 988 -483 622 -1216 1610 -1583 2133
l-23 33 68 -5 c38 -3 326 -10 639 -16z m-765 -220 c611 -865 1407 -1922 2057
-2734 123 -153 223 -280 221 -281 -6 -5 -1050 15 -1327 25 -874 32 -1614 78
-2406 151 -471 43 -673 64 -680 71 -4 3 98 158 225 345 409 596 1148 1711
1683 2538 l69 106 17 -23 c10 -13 73 -102 141 -198z m5340 -195 c490 -756
1137 -1727 1568 -2355 77 -112 140 -206 139 -207 -3 -2 -661 -70 -907 -93
-673 -62 -1467 -112 -2225 -140 -259 -10 -1276 -30 -1282 -25 -2 1 68 89 154
196 672 835 1511 1950 2133 2831 108 153 148 203 156 194 7 -6 125 -186 264
-401z m12639 198 c-199 -220 -293 -320 -518 -556 -256 -267 -677 -678 -961
-937 -140 -128 -475 -423 -521 -459 l-27 -21 -57 148 c-32 81 -112 280 -178
442 -66 162 -127 314 -136 337 l-16 43 30 29 c23 22 100 56 315 136 644 241
1511 601 2010 834 81 38 90 38 59 4z m-30394 -438 c359 -149 1038 -405 1508
-570 115 -40 211 -76 214 -79 3 -3 -46 -133 -109 -288 -64 -156 -135 -334
-159 -395 -24 -62 -47 -113 -51 -113 -10 0 -223 187 -488 429 -346 315 -1140
1109 -1090 1089 8 -4 87 -36 175 -73z m27679 -647 c-12 -21 -291 -342 -523
-602 -240 -272 -560 -619 -855 -931 -216 -227 -1159 -1171 -1186 -1185 -13 -7
-89 118 -455 752 -242 418 -449 778 -459 799 l-19 38 56 68 55 68 291 73 c845
211 1680 457 2561 753 289 97 529 177 533 178 5 0 5 -5 1 -11z m270 -341 c54
-131 135 -336 182 -455 l85 -217 -43 -38 c-225 -204 -1092 -863 -1216 -926
-229 -115 -1434 -641 -1470 -641 -4 0 164 172 373 383 656 659 1214 1260 1810
1949 94 109 173 194 176 190 3 -4 50 -114 103 -245z m-25808 203 c791 -270
2088 -635 3108 -875 247 -58 271 -66 292 -92 22 -27 22 -29 4 -58 -10 -16
-219 -379 -465 -805 -246 -426 -453 -785 -461 -797 l-14 -22 -52 22 c-46 19
-116 85 -524 492 -685 684 -1158 1194 -1741 1879 -114 132 -215 251 -226 264
-11 12 -18 22 -16 22 3 0 45 -14 95 -30z m-120 -217 c518 -616 1117 -1270
1739 -1901 l316 -320 -203 85 c-381 160 -629 273 -691 315 -405 274 -1044 757
-1494 1131 l-132 110 20 51 c105 270 283 706 289 706 4 0 74 -80 156 -177z
m21932 -746 c5 -26 -500 -602 -1011 -1152 -437 -470 -1606 -1625 -1646 -1625
-16 0 -492 638 -896 1200 -234 326 -596 840 -601 854 -3 9 28 16 103 25 1069
122 2865 440 3878 685 155 37 168 38 173 13z m-17643 -147 c1034 -216 2147
-399 3245 -536 206 -26 377 -48 379 -50 7 -7 -646 -924 -1019 -1430 -359 -487
-464 -624 -477 -621 -19 3 -392 356 -742 702 -418 413 -830 846 -1250 1310
-151 167 -584 660 -620 706 l-21 27 88 -20 c48 -11 236 -50 417 -88z m-410
-274 c655 -755 1479 -1619 2107 -2210 76 -71 136 -131 135 -133 -2 -2 -122 26
-266 62 -810 201 -1531 411 -2281 664 -283 95 -793 275 -812 287 -5 3 825
1453 889 1553 8 13 18 19 22 15 4 -5 97 -112 206 -238z m18605 -528 c245 -425
444 -774 443 -777 -2 -6 -54 -25 -398 -151 -672 -245 -1459 -495 -2174 -690
-278 -76 -773 -201 -777 -197 -2 1 87 88 197 192 261 247 906 898 1179 1190
349 373 887 975 1045 1167 17 20 32 37 35 37 3 0 205 -347 450 -771z m-5062
175 c-54 -65 -371 -419 -512 -573 -570 -622 -1079 -1137 -1779 -1799 l-68 -65
-65 65 c-102 99 -552 573 -740 779 -313 341 -703 787 -1081 1235 l-102 120
147 2 c1402 20 2841 104 3926 228 110 12 221 23 245 24 41 1 43 0 29 -16z
m-8778 -33 c1233 -117 2332 -178 3567 -198 l413 -7 -186 -220 c-560 -663
-1108 -1271 -1591 -1765 l-210 -214 -89 84 c-539 509 -1087 1058 -1564 1570
-158 169 -629 690 -686 759 l-28 33 30 -6 c16 -3 171 -19 344 -36z m-244 -360
c638 -708 1307 -1394 1953 -1999 l153 -144 -198 7 c-893 30 -1848 113 -2609
227 -332 49 -811 135 -1037 185 l-66 15 152 202 c323 427 813 1104 1181 1630
l159 227 45 -52 c25 -29 145 -163 267 -298z m9350 153 c365 -524 801 -1126
1161 -1605 106 -142 192 -258 190 -258 -2 0 -69 -13 -148 -29 -804 -163 -1952
-291 -3234 -360 -203 -12 -401 -22 -438 -23 l-68 -3 53 50 c789 741 1542 1515
2188 2248 85 96 156 176 157 176 1 1 63 -88 139 -196z m-4670 -305 c553 -660
1062 -1228 1565 -1749 l228 -236 -137 -6 c-465 -22 -1234 -29 -2487 -23 -742
3 -1369 9 -1393 12 l-43 6 188 192 c499 509 1158 1247 1732 1939 63 75 115
137 116 137 2 0 105 -123 231 -272z m10994 -152 c-138 -93 -798 -491 -804
-485 -22 27 -75 134 -69 139 4 4 150 64 323 133 173 70 371 151 440 181 140
61 161 67 110 32z m-21636 -368 c32 -29 38 -39 29 -49 -10 -10 -48 9 -183 90
-93 56 -170 104 -170 106 0 1 64 -22 141 -53 99 -40 154 -68 183 -94z m20642
-144 c20 -36 35 -66 33 -68 -12 -9 -312 -173 -414 -226 l-120 -62 90 83 c49
46 151 141 225 211 74 70 138 127 142 127 4 1 24 -28 44 -65z m-19970 -83
c886 -315 1958 -631 2886 -852 148 -35 268 -68 268 -72 0 -7 -271 -355 -375
-481 l-24 -30 -158 59 c-729 270 -1565 639 -2238 986 -229 118 -231 120 -365
241 -198 178 -262 238 -252 238 4 0 120 -40 258 -89z m19487 -13 c-78 -74
-220 -201 -453 -408 l-195 -172 -170 -83 c-508 -246 -1365 -603 -1862 -776
l-53 -18 -43 52 c-81 95 -387 487 -387 494 0 5 118 37 263 72 519 126 1045
271 1567 431 294 90 1015 330 1240 413 80 29 146 52 148 51 2 -1 -23 -26 -55
-56z m-16064 -1056 c257 -231 711 -617 974 -826 96 -77 109 -89 85 -81 -7 2
-112 32 -233 65 -326 90 -581 168 -955 292 -184 61 -338 112 -342 115 -4 2 68
99 161 216 92 117 180 229 195 250 16 20 31 37 34 37 3 0 39 -31 81 -68z
m12833 -79 c64 -82 159 -202 212 -268 l95 -119 -77 -28 c-234 -86 -925 -296
-1327 -403 -115 -30 -216 -58 -222 -60 -7 -2 -13 -3 -13 0 0 2 66 57 148 122
294 235 812 675 1007 856 28 25 53 46 56 47 3 0 58 -66 121 -147z m-12207 47
c864 -155 1997 -271 2993 -306 106 -4 195 -10 197 -14 8 -13 -526 -506 -855
-789 l-165 -142 -50 6 c-132 16 -789 151 -1103 225 l-132 32 -138 105 c-171
132 -449 355 -607 487 -170 142 -533 455 -539 465 -3 5 36 0 87 -11 50 -10
191 -36 312 -58z m11754 57 c-8 -7 -94 -80 -190 -163 -383 -331 -1049 -864
-1154 -925 -43 -25 -874 -198 -1126 -234 l-46 -7 -104 88 c-147 125 -315 272
-449 393 -173 157 -520 485 -516 488 2 2 129 10 282 18 962 51 1794 126 2504
226 224 31 656 101 725 118 22 5 51 9 65 10 21 0 23 -1 9 -12z m-3705 -524
c270 -264 567 -537 825 -758 57 -49 100 -90 95 -92 -21 -6 -367 -55 -584 -82
-445 -57 -959 -104 -1410 -131 -210 -12 -614 -29 -617 -26 -2 2 84 70 190 152
353 273 823 665 1172 978 72 64 138 116 148 116 11 0 90 -70 181 -157z m-480
126 c-26 -29 -336 -298 -528 -458 -219 -183 -555 -451 -776 -618 l-185 -140
-147 -6 c-80 -4 -255 -4 -388 0 l-242 6 -209 158 c-256 194 -490 380 -759 605
-230 192 -533 455 -528 458 2 1 215 -2 473 -7 479 -9 2618 0 2980 12 110 4
229 8 264 9 l64 2 -19 -21z m-3822 -160 c367 -325 866 -737 1172 -969 120 -91
131 -87 -184 -71 -666 34 -1299 95 -1940 187 -173 25 -327 48 -342 52 -27 7
-24 10 85 103 226 194 661 596 842 778 84 86 92 91 131 91 40 0 51 -8 236
-171z"/>
</g>
</svg>
